<svg version="1.1" xmlns="http://www.w3.org/2000/svg" viewBox="0 0 789.6000061035156 993.7999877929688" width="1579.2000122070312" height="1987.5999755859375">
  <!-- svg-source:excalidraw -->
  
  <defs>
    <style>
      @font-face {
        font-family: "Virgil";
        src: url("https://excalidraw.com/Virgil.woff2");
      }
      @font-face {
        font-family: "Cascadia";
        src: url("https://excalidraw.com/Cascadia.woff2");
      }
    </style>
  </defs>
  <rect x="0" y="0" width="789.6000061035156" height="993.7999877929688" fill="#ffffff"></rect><g stroke-linecap="round" transform="translate(191.20001220703125 379.84993743896484) rotate(0 22.399993896484375 22.79999542236328)"><path d="M1.26 14.35 C1.26 14.35, 1.26 14.35, 1.26 14.35 M1.26 14.35 C1.26 14.35, 1.26 14.35, 1.26 14.35 M0.3 19.79 C6.92 15.99, 9.55 8.07, 14.09 4.78 M1.54 20.7 C3.23 17.77, 7.75 12.75, 14.93 4.48 M2.3 26.03 C9.22 17.08, 17.43 6.68, 20.48 3.23 M0.76 27.02 C7.65 18.67, 14.71 11.82, 21.28 3.47 M3.65 28.6 C12.77 20.63, 18.81 14.12, 28.07 1.7 M3.85 30.63 C11.87 22.7, 19.22 13.85, 28.32 0.8 M6.24 33 C9.59 28.59, 16.65 20.38, 30.5 3.81 M5.64 34.41 C10.86 27.58, 15.73 21.68, 32.4 4.54 M7.19 39.15 C18.18 26.7, 26.28 15.17, 37.13 6.73 M8.71 36.81 C16.87 26.96, 27.15 14.22, 34.63 5.42 M11.69 41.79 C21.7 29.64, 30.2 16.3, 39.51 6.44 M11.49 39.58 C16.22 33.66, 22.49 27.35, 37.62 8.43 M11.22 41.76 C22.4 29.18, 33.13 20.74, 42.71 10.14 M12.76 43.16 C18.27 36.71, 24.57 29.08, 42.1 10.34 M16.23 45.32 C24.69 38.92, 29.58 31.86, 42.18 12.99 M17.63 45.28 C23.18 37.58, 28.53 31.35, 44.07 14.72 M20.44 46.21 C26.82 36.21, 35.2 30.04, 42.53 19.72 M22.1 45.21 C29.97 36.51, 38.15 26.31, 44.82 20.75 M26.87 47.48 C34.03 38.48, 37.16 33.15, 44.99 22.36 M26.39 46.84 C32.98 37.33, 41.47 30.66, 46.74 23.18" stroke="#ced4da" stroke-width="0.5" fill="none"></path><path d="M27.56 0.43 C31.97 1.46, 38.17 6.05, 41.16 10.13 C44.16 14.21, 46.07 20.04, 45.51 24.92 C44.95 29.79, 41.2 36.05, 37.79 39.37 C34.38 42.7, 29.61 44.7, 25.05 44.88 C20.48 45.06, 14.45 43.1, 10.42 40.45 C6.39 37.79, 2.33 33.36, 0.85 28.95 C-0.63 24.55, -0.44 18.51, 1.55 14.01 C3.55 9.51, 7.66 3.95, 12.82 1.94 C17.98 -0.06, 28.56 1.38, 32.5 1.96 C36.45 2.55, 36.72 5.15, 36.47 5.46 M12.14 3.1 C16.11 1.12, 23.19 0.77, 28.07 1.64 C32.95 2.5, 38.73 4.71, 41.44 8.29 C44.15 11.87, 44.92 18.31, 44.33 23.13 C43.75 27.96, 41.03 33.68, 37.92 37.24 C34.81 40.8, 30.05 43.57, 25.68 44.51 C21.32 45.44, 15.68 45.38, 11.75 42.87 C7.82 40.36, 3.9 34.45, 2.11 29.47 C0.32 24.49, -0.82 17.65, 1.02 12.98 C2.85 8.3, 11.07 3.21, 13.11 1.45 C15.15 -0.31, 13.3 2.07, 13.26 2.42" stroke="#000000" stroke-width="1" fill="none"></path></g><g transform="translate(171.20001220703125 438.8499221801758) rotate(0 34 12.5)"><text x="0" y="18" font-family="Virgil, Segoe UI Emoji" font-size="20px" fill="#000000" text-anchor="start" style="white-space: pre;" direction="ltr">Port 0</text></g><g stroke-linecap="round"><g transform="translate(160.80001831054688 401.93062603869794) rotate(0 13.31135745975999 0.4140009016528552)"><path d="M0.82 -0.59 C5.11 -0.73, 20.65 -0.9, 24.63 -0.89 M-0.21 1.72 C4.54 1.68, 22.28 0.26, 26.83 0.04" stroke="#000000" stroke-width="1" fill="none"></path></g><g transform="translate(160.80001831054688 401.93062603869794) rotate(0 13.31135745975999 0.4140009016528552)"><path d="M14.49 4.16 C16.32 3.05, 19.15 3.56, 27.64 0.53 M14.48 4.72 C19.47 3.97, 22.84 2.44, 26.9 0.03" stroke="#000000" stroke-width="1" fill="none"></path></g><g transform="translate(160.80001831054688 401.93062603869794) rotate(0 13.31135745975999 0.4140009016528552)"><path d="M13.92 -4.58 C15.87 -3.87, 18.81 -1.55, 27.64 0.53 M13.91 -4.02 C19.1 -1.91, 22.65 -0.58, 26.9 0.03" stroke="#000000" stroke-width="1" fill="none"></path></g></g><g transform="translate(10 389.54993438720703) rotate(0 72 12.5)"><text x="0" y="18" font-family="Virgil, Segoe UI Emoji" font-size="20px" fill="#000000" text-anchor="start" style="white-space: pre;" direction="ltr">RADIUS FEED</text></g><g stroke-linecap="round" transform="translate(466.1999206542969 10) rotate(0 126 30.399993896484375)"><path d="M0 0 C0 0, 0 0, 0 0 M0 0 C0 0, 0 0, 0 0 M-0.01 6.83 C0.45 4.51, 2.96 3.59, 4.31 0.65 M-0.03 6.14 C0.7 4.52, 2.87 3.15, 5.22 0.24 M1.55 12.48 C3.67 8.89, 5.03 3.95, 12.16 -0.41 M0.33 12.1 C3.44 9.73, 6.09 5.41, 10.55 -0.7 M1.47 19.01 C5.09 13.71, 4.98 8.67, 13.87 -0.86 M-0.72 18.57 C3.66 14.75, 6.71 9.74, 14.82 -0.65 M-0.81 25.97 C5 18.29, 8.49 15.54, 20.06 -0.19 M-0.59 23.6 C6.3 16.9, 11.16 11.06, 21.73 0.36 M-1.85 32.08 C7.38 20.67, 15.25 16.09, 26.21 -1.57 M-0.87 29.8 C9.35 20.03, 19.22 8.09, 26.44 -0.41 M-0.17 36.34 C8.11 26.07, 21.13 12.59, 31.78 -0.82 M-0.51 36.08 C6.84 28.36, 14.34 18.47, 32.29 0.63 M-1.06 44.52 C15.71 26.33, 27.12 8.8, 38.14 1.75 M-0.65 42.22 C14.28 26.17, 27.95 10.73, 37.65 0.68 M0.29 49.63 C9.89 37.66, 21.95 23.82, 42.65 -0.5 M-0.52 48.65 C15.89 30.46, 31.39 13.41, 42.25 -1.07 M0.16 54.85 C14.4 34.85, 31.92 17.97, 48.23 -0.36 M0.28 55.49 C12.86 39.63, 26.61 23.2, 48.03 -0.05 M-0.12 61.73 C18.95 37.6, 39.8 16.27, 53.39 1.42 M0.61 60.05 C14.36 42.78, 31.44 24.97, 53.49 0.13 M5.14 62.31 C24.65 39.87, 42.46 17.61, 57.83 0.33 M5.37 61.14 C19.34 43.09, 34.4 27.67, 58.53 1.08 M11.82 61.44 C21.16 48.51, 32.36 37.43, 64.49 -1.73 M10.62 60.61 C31.91 37.46, 50.42 14.7, 64.76 0.01 M15.77 60.85 C36.38 40.62, 55.56 17.2, 69.1 -0.22 M15.67 59.63 C27.47 48.18, 37.13 36.42, 68.43 -0.84 M21.15 61.4 C41.08 38.42, 60.88 18, 74.25 -1.86 M20.64 60.17 C32.44 46.3, 45.05 33.73, 74.66 0.21 M25.8 61.98 C45.98 41.63, 64.82 20.67, 78.96 -0.34 M26.2 62.1 C46.7 37.78, 66.53 14.92, 80.4 -0.32 M30.15 59.93 C47.11 44.01, 58.22 27.72, 84.72 -2.2 M31.64 60.89 C43.14 49.69, 53.26 36.54, 84.66 -0.7 M35.99 61.58 C49.68 48.76, 60.76 33.1, 89.11 1.38 M36.04 60.26 C52.81 42.67, 70.36 23.57, 89.45 -0.51 M41.92 59.05 C63.41 37.69, 85.64 10.67, 95.76 0.75 M42.94 60.32 C56.55 43.02, 73.65 26.21, 96.08 -0.3 M46.89 60.54 C64.02 44.04, 81.12 25.26, 100.04 0.04 M48.18 62.01 C66.72 37.51, 87.6 13.43, 99.98 -0.14 M54.3 62.49 C68.5 44.39, 79.92 30.44, 107 -0.76 M53.24 60.43 C64.65 49.19, 74.87 36.74, 107.09 -1.26 M59.52 59.73 C73.56 42.1, 91.12 22.39, 113.02 -1.52 M59.11 61.35 C78.24 37.23, 100.02 12.79, 110.7 -0.57 M61.96 61.71 C84.41 40, 101.8 16.5, 115.17 0.94 M63.59 60.53 C81.37 41.08, 97.76 20.82, 117.09 0.41 M68.65 62.69 C89.25 36.55, 108.55 15.05, 120.09 1.26 M69.18 60.2 C80.2 48.61, 91.65 35.88, 121.72 -0.75 M74.3 61.89 C92.32 38.97, 109.03 18.97, 126.8 0.02 M74.39 60.37 C92.22 39.87, 112.78 18.62, 126.3 1.3 M80.85 61.72 C95.26 39.77, 113.36 21.72, 134.1 0.64 M79.6 61.35 C95.43 42.08, 110.31 24.08, 133.5 -0.25 M85.54 59.93 C101.84 36.93, 122.42 17.19, 136.18 -0.39 M84.41 61.06 C98.29 45.43, 110.64 30.47, 136.8 0.16 M88.46 59.82 C103.53 44.96, 116.85 28.28, 142.64 -1.38 M89.46 61.5 C100.01 48.96, 111.17 34.8, 143.84 -0.25 M96.66 62.43 C109.26 44.83, 126.9 27.62, 150.08 -1.19 M95.79 60.1 C109.53 43.7, 123.35 27.63, 148.23 -0.1 M99.62 60.72 C112.28 49.16, 120.15 37.35, 154.12 0.9 M100.68 60.21 C114.61 43.01, 130.43 27.2, 152.93 -0.53 M105.42 59.75 C125.22 36.28, 146.24 13.06, 157.02 -0.57 M107 60.41 C124.31 40.18, 142.87 18.23, 158.06 -0.71 M112.23 62.87 C122.44 48.34, 136.03 33.31, 163.71 -1.1 M111.05 60.97 C129.1 40.43, 146.82 19.58, 164.29 -0.51 M116.39 59.92 C136.4 37.57, 159.01 11.04, 169.33 0.01 M117.9 61.26 C135.91 39.51, 153.42 18.71, 168.64 0 M119.99 61.41 C139.62 39.39, 157.56 22.36, 175.35 -0.21 M121.23 60.13 C133.54 47.87, 143.19 34.89, 175.83 -0.17 M126.89 58.71 C143.7 44.64, 156.04 24.52, 181.1 1.82 M126.69 61.34 C146.33 36.91, 166.95 15.16, 180.15 -0.4 M134.35 62.24 C151.13 41.28, 169.74 19.81, 183.8 0.41 M131.73 59.94 C143.52 48.08, 154.43 35.74, 184.79 -1.14 M137.03 61.63 C147.66 47.93, 160.53 36.67, 190.2 -1.19 M138.93 59.72 C153.21 43.84, 165.85 29.18, 191.66 0.54 M142.58 59.95 C158.01 44.61, 169.56 29.28, 196.57 1.36 M143.91 61.55 C154.72 47.74, 166.13 35.35, 196.78 0.35 M147.05 62.62 C158.77 47.22, 170.79 35.78, 200.3 -0.31 M147.9 61.61 C162.51 42.54, 178.6 25.87, 202.09 -0.82 M153.71 59.86 C169.77 44.8, 182.02 25.82, 207.95 0.93 M153 59.99 C166.29 47.42, 176.62 32.84, 206.79 0.48 M157.93 63.11 C178.6 37.94, 198.15 15.98, 210.83 1.87 M158.19 60.37 C174.35 43.1, 189.54 26.24, 211.2 0.73 M164.56 60 C180.46 40.28, 197.6 24.59, 217.03 1.15 M165.1 61.18 C176.38 47.77, 187.16 33.58, 218.13 -1.21 M169.48 62.51 C190.53 39.46, 210.41 15.19, 223.02 1.48 M168.79 60.99 C184.1 42.66, 199.91 24.69, 222.64 0.34 M173.71 61.14 C193.61 36.42, 217.2 14.52, 229.67 -2.24 M174.15 60.93 C187.75 46.47, 200.82 32.05, 227.49 -0.76 M180.93 61.16 C199.6 40.74, 216.39 18.41, 233.87 -0.64 M180.7 62.1 C195.84 42, 212.76 22.68, 232.9 0.01 M187.55 60.74 C206.76 37.64, 223.06 16.78, 239.86 -1.03 M184.96 59.95 C205.59 38.62, 222.79 16.57, 237.28 -0.08 M192.3 59.16 C206.81 41.4, 221.83 25.34, 242.15 -0.92 M191.28 61.73 C211.76 38.33, 231.8 15.25, 244.34 -0.34 M198.24 59 C211.43 42.62, 225.13 28.68, 250.33 0.44 M196.19 60.83 C213.14 41.81, 231.05 21.64, 249.22 1.04 M202.39 62.32 C218.83 39.17, 238.53 15.94, 253.14 2.45 M201.25 60.29 C215.62 44.77, 228.64 29.17, 252.85 1.59 M205.72 60.83 C222.51 44.59, 238.64 25.91, 252.73 6.63 M207.38 61.07 C218.46 47.98, 231.3 34.33, 253.5 7.27 M210.77 60.14 C222.77 47.35, 233.2 35.53, 251.29 13.51 M211.7 61.59 C228.13 43.03, 244.98 24, 253.64 13.54 M215.7 61.86 C229.39 48.22, 237.96 34.95, 253.35 18.63 M217.9 60.03 C231.15 44.98, 244.07 29.75, 253.57 18.61 M223.82 59.87 C230.48 53.76, 235.95 43.98, 253.93 25.44 M223.06 61.82 C231.73 48.98, 240.69 38.47, 253.82 24.54 M229.69 62.44 C234.76 55.46, 240.95 46.42, 253.91 30.26 M228.01 59.98 C236.21 53.37, 243.12 45.5, 253.86 31.43 M232.67 60.47 C239.23 54.34, 241.6 52.94, 254.95 36.67 M234.14 60.58 C236.44 56.24, 242.01 52.04, 253.19 38.05 M238.98 61.64 C244.89 54.59, 248.26 46.13, 252.26 44.04 M239.8 61.09 C243.09 56.09, 247.04 51.3, 253.51 43.51 M243.4 62.2 C245.81 56.85, 251.1 53.74, 252.46 50.18 M243.28 61.61 C245.92 58.12, 248.5 56.88, 254.22 50.22 M249.83 60.14 C250.2 59.86, 251.21 58.4, 253.32 56.15 M249.71 60.48 C250.44 59.21, 252.06 58.14, 253.63 56.09" stroke="#82c91e" stroke-width="0.5" fill="none"></path><path d="M0.19 1.19 C97.73 -1.96, 193.44 -1.81, 251.84 0.36 M0.72 -0.78 C93.54 0.46, 185.91 2.02, 251.25 -0.69 M250.19 -0.92 C252.58 22.49, 253.18 39.93, 252.48 60.47 M252 0.29 C252.44 18.53, 251.7 34.85, 251.34 60 M250.89 60.36 C188.12 58.95, 123.46 59.88, 1.55 62.37 M251.4 61.18 C162.84 59.07, 74.18 59.77, 0.07 60.22 M0.49 60.85 C1.42 42.25, -2.51 27.03, 1.13 -1.19 M-0.96 60.86 C0.37 38.19, -0.78 13.67, 0.45 -0.19" stroke="#000000" stroke-width="1" fill="none"></path></g><g transform="translate(512.8999328613281 29.5) rotate(0 78.5 12.5)"><text x="78.5" y="18" font-family="Virgil, Segoe UI Emoji" font-size="20px" fill="#000000" text-anchor="middle" style="white-space: pre;" direction="ltr">init EAL params</text></g><g stroke-linecap="round" transform="translate(469.1999816894531 111.39997863769531) rotate(0 126 30.399993896484375)"><path d="M0 0 C0 0, 0 0, 0 0 M0 0 C0 0, 0 0, 0 0 M-0.63 6.91 C1.6 3.68, 4.05 1.49, 4.22 -0.26 M-0.49 6.16 C1.95 4.16, 3.45 2.01, 4.63 0.27 M0.21 12.89 C3.68 8.42, 6.99 4.01, 9.83 -1.5 M0.46 12.05 C2.65 8.4, 4.45 5.89, 10.38 -0.24 M-0.75 18.43 C7.29 12.75, 12.22 6.29, 17.27 -1.12 M-0.81 18.24 C3.86 13.13, 9.03 8.83, 16.47 1.32 M0.96 23.66 C3.45 19.51, 9.07 12.53, 20.54 1.83 M1.06 23.17 C8.07 16.11, 16.08 7.09, 20.55 -0.69 M1.73 28.95 C11.3 20.73, 20.54 10.76, 26.65 -0.41 M-0.58 29.9 C9.68 20.86, 17.57 8.64, 26.72 0.97 M-1.36 37.44 C12.97 22.71, 25.34 7.65, 31.46 0.72 M0.56 36.91 C11.32 23.91, 21.74 12.35, 32.68 -0.08 M-1.69 43.8 C7.08 30.99, 19.45 23.41, 35.05 -0.01 M-0.06 41.79 C14.17 26.76, 27.52 10.47, 37.46 0.52 M-0.23 48.6 C10.7 39.67, 17.15 27.22, 41.83 -1.53 M-0.73 49.87 C14.25 31.8, 28.51 15.58, 42.84 -0.72 M1.82 55.26 C10.27 44.62, 21.86 31.86, 48.05 1.83 M1.22 54.37 C12.51 41.91, 23.82 28.31, 47.13 -0.72 M-1.35 60.26 C10.21 47.82, 23.43 33.81, 53.9 0.44 M-0.72 60.82 C14.62 42.96, 30.4 25.97, 52.54 -0.46 M5.12 59.27 C18.66 45.96, 36.62 25.98, 59.04 -0.4 M6.31 60.41 C25.04 37.65, 45.02 16.38, 59.03 -0.54 M12.55 59.46 C27.97 40, 47.03 18.48, 62.69 -0.29 M10.71 60.55 C21.37 47.8, 33.77 34.19, 63.64 0.21 M16.59 61.55 C32.9 40.72, 51.22 22.3, 67.17 -1.52 M15.4 60.12 C28.19 46.95, 38.58 34.21, 68.33 -0.84 M19.5 60.08 C36.91 44.6, 48.14 29.69, 73.99 -0.92 M20.54 59.94 C37.25 41.8, 55.44 23.42, 75.36 -0.78 M25.52 60.31 C47.11 38.73, 68.4 14.05, 79.39 0.37 M26.11 60.9 C46.33 39.1, 63.69 17.02, 79.07 -0.65 M31.8 60.67 C50.85 41.37, 67.62 21.97, 86.39 1.07 M31.11 60.65 C49.35 41.36, 65.62 20.55, 85.28 -0.14 M37.17 61.19 C47.03 48.64, 59.09 31.53, 88.41 1.93 M37.65 61.24 C49.8 47.48, 63 32.03, 89.11 0.91 M43.57 62.47 C63.68 39.81, 83.41 15.05, 97.25 -2.07 M42.63 60.25 C57.63 44.49, 71.29 27.93, 96.34 -0.16 M45.62 61.82 C66.27 37.19, 87.47 11.36, 98.73 0.48 M46.61 60.27 C58.5 48.29, 71.45 33.07, 101.22 -0.38 M52.67 59.47 C67.4 42.88, 81.79 26.86, 104.71 1.61 M54.14 61.2 C63.84 48.51, 75.09 35.33, 105.84 0.23 M58.39 62.77 C72.15 42.76, 91.03 27.09, 112.65 0.11 M58.6 61.76 C75.06 39.22, 93.87 19.16, 111.98 -0.88 M62.77 60.35 C79.17 44.77, 93.55 25.3, 117.04 -1.46 M64.56 59.83 C75.83 46.61, 88.89 32.67, 115.79 1.28 M69.77 62.34 C85 41.93, 103.68 19.25, 120.22 1.59 M68.6 61.89 C86.36 42.52, 101.99 23.32, 122.88 -0.03 M73.3 62.52 C88.35 43.82, 103.23 26.93, 125.26 0.61 M73.68 61.39 C87.83 46.17, 100.63 29.94, 126.5 0.35 M78.85 62.56 C88.89 45.91, 104.1 35.62, 133.3 0.44 M79.94 60.2 C98.34 41.23, 116.42 20.06, 133.22 0.61 M85.49 62.13 C104.97 38.97, 126.9 12.27, 137.19 -0.31 M85.12 60.99 C100.34 43.73, 113.36 26.81, 137.72 -0.57 M91.49 59.17 C99.65 49.9, 112.88 33.17, 143.5 0.87 M89.31 60.65 C108.83 38.94, 126.31 17.85, 143.2 0.36 M96.34 60.01 C113.45 40.85, 129.84 22.32, 150.11 -1.38 M95.38 60.66 C111.37 45.03, 125.67 28.17, 148.17 1.2 M102.33 59.62 C118.11 43.01, 133.91 22.96, 152.24 1.84 M99.76 60.57 C117.93 41.96, 135.64 23, 152.84 0.44 M104.63 59.73 C118.59 48, 127.6 36.65, 160.06 1.94 M106.82 60.31 C123.1 39.63, 141.54 20.87, 157.95 0.68 M112.8 61.09 C122.67 47.24, 132.3 35.05, 164.71 -1.01 M111.69 61.69 C129.55 40.28, 146.1 20.51, 165.07 -1.03 M116.93 61.59 C131.71 45.57, 148.39 26.26, 167.88 1.93 M116.64 60.73 C133.45 41.61, 150.08 22.46, 169.51 0.31 M121.11 60.49 C141.54 35.51, 162.39 13.46, 175.88 -1.28 M121.88 61.13 C140.13 39.78, 159.84 16.61, 174.63 -0.05 M125.58 60.58 C142.86 47, 152.54 29.48, 181.18 0.57 M127.92 60.61 C145.41 39.68, 163.16 17.24, 180.67 0.9 M132.23 60.42 C148.45 44.41, 161.17 28.9, 184.5 0.11 M132.45 60.39 C145.75 45.58, 159.93 29.99, 185.14 0.26 M138.71 60.43 C156.36 41.26, 173.79 20.83, 192.35 -0.42 M138.6 59.53 C148.36 48.13, 159.96 37.34, 191.61 0.68 M143.94 59.21 C160.83 38.04, 178.04 18.18, 195.1 1 M143.89 60.38 C161.54 37.73, 182.32 14.93, 196.09 0.7 M149.57 60.34 C157.15 49.15, 168 37.54, 200.56 -1.62 M147.81 61.72 C164.11 42.27, 178.97 25.61, 201.86 0.24 M152.79 60.92 C171.62 42.91, 189.62 23.3, 208.01 -0.09 M154.04 60.39 C172.51 38.37, 190.21 17.69, 207.81 -1.07 M157.17 61.96 C170.16 46.13, 184.3 28.52, 213.78 0.12 M159.51 62.02 C170.45 45.65, 183.95 32.31, 211.31 -0.42 M164.1 61.33 C184.68 35.81, 204.31 15.84, 217.31 -1.9 M165.12 61.1 C180.28 42.52, 195.26 24.1, 218.5 0.52 M168.32 59.93 C186.22 39.71, 203.46 21.35, 222.73 1.67 M169.56 61.45 C187.23 39.73, 206.17 18.63, 223.21 -0.93 M173.99 61.91 C188.61 42.46, 204.25 26.59, 228.88 1.55 M174.68 61.57 C189.47 44.52, 201.36 28.5, 227.22 -0.08 M178.27 60.84 C202.4 36.46, 222.49 15.63, 234.93 -0.41 M179.32 61.13 C196.7 41.45, 215.2 22.24, 233.18 0.51 M187.36 59.88 C200.9 44.09, 213.08 29.39, 237.73 -0.31 M186.66 60.28 C202.61 43.44, 216.72 25.33, 238.23 0.23 M192.06 62.01 C205.73 45.33, 218.65 32.38, 244.69 0.21 M190.03 60.12 C208.66 38.89, 228.64 17.57, 244.19 0.04 M195.87 62.17 C209.03 49.99, 218.02 35.75, 248.61 0.45 M196.33 60.07 C210.01 44.93, 222.55 30.33, 248.62 1.17 M202.5 61.48 C212.4 45.49, 225.51 31.42, 253.78 3.05 M201.78 60.32 C222.29 36.61, 242.23 12.51, 252.25 0.74 M207.98 59.42 C224.86 40.47, 244.41 19.08, 252.18 7.48 M207.34 61.19 C224.07 40.33, 241.11 20.95, 253.46 7.43 M212.19 60 C225.32 42.32, 243.94 25.61, 252.18 12.9 M212.51 61.56 C225.09 45.98, 238.77 30.19, 254.19 13.61 M218.93 59.99 C231.01 47.47, 244.27 30.34, 254.75 20.14 M216.69 60.27 C225.98 49.63, 236.06 41.14, 254.56 19.51 M223.5 59.06 C230.84 48.11, 243.3 38.54, 251.71 26.66 M223.03 60.54 C229.29 53.86, 236.3 46.04, 254.24 25.42 M228.74 59.97 C234.11 52.35, 242.16 43.78, 255.05 33.46 M227.74 61.34 C235.26 51.65, 244.24 43.06, 252.21 32.79 M232.6 62.83 C239.21 54.93, 246.43 49.19, 253.81 37.5 M234 61.85 C240.54 52.89, 249.19 44.3, 252.81 37.9 M240.21 61.17 C243.71 54.64, 247.65 47.01, 252.95 42.21 M239.22 60.81 C243.92 55.5, 248.64 49.84, 252.93 44.55 M243.53 60.41 C248.33 56.84, 248.73 55.04, 252.94 50.15 M243.18 60.96 C247.08 57.13, 250.54 53.62, 254.42 50.02 M249.32 60.7 C251.02 59.43, 250.98 58.28, 253.04 55.45 M249.7 60.51 C250.8 59, 252.7 57.29, 253.34 56.07" stroke="#82c91e" stroke-width="0.5" fill="none"></path><path d="M0.58 -1.24 C77.87 -2.94, 154.53 -1.36, 251.49 1.26 M0.8 0.17 C71.36 0, 141.05 -0.08, 252.13 0.3 M252.33 -0.38 C250.29 25.21, 253.19 46.63, 250.21 62.48 M251.66 -0.99 C252.46 20.61, 251.83 39.56, 252.26 61.36 M251.87 59.48 C180.44 62.4, 110.88 61.04, -1.18 59.46 M252.21 61.17 C195.92 61.8, 138.9 61.87, 0.29 61.22 M-0.44 60.34 C1.15 37.77, -0.81 14.67, 1.69 0.7 M1 60.36 C-0.43 45.04, -0.04 29.19, -0.46 0.52" stroke="#000000" stroke-width="1" fill="none"></path></g><g transform="translate(536.6999816894531 129.2999725341797) rotate(0 58.5 12.5)"><text x="58.5" y="18" font-family="Virgil, Segoe UI Emoji" font-size="20px" fill="#000000" text-anchor="middle" style="white-space: pre;" direction="ltr">start ports</text></g><g stroke-linecap="round" transform="translate(468.3999938964844 197.60000610351562) rotate(0 126 30.399993896484375)"><path d="M0 0 C0 0, 0 0, 0 0 M0 0 C0 0, 0 0, 0 0 M0.18 6.03 C2.21 4.9, 3.04 2.71, 5.45 1.05 M-0.07 6.65 C1.78 3.79, 3.65 1.94, 5.32 0.18 M1.53 11.22 C3.06 8.57, 4.9 7.4, 10.88 0.36 M0.38 11.68 C3.02 9.27, 6.06 5.85, 10.03 0.4 M-1.42 17.81 C4.53 11.29, 10.26 5.97, 14.06 2.23 M0.62 18.67 C6.16 12.1, 10.01 6.5, 15.99 0.25 M-1.27 23.71 C5.01 16.82, 12.15 11.04, 22.69 -1.93 M0.7 25.03 C7.53 16.45, 13.77 10.11, 21.38 -0.23 M-1.74 30.35 C9.52 20.95, 20.13 8.08, 27.84 1.74 M-0.54 30.46 C7.83 21.57, 16.51 11.58, 26.73 0.6 M-2.04 36.63 C10.59 23.83, 20.04 12.1, 31.73 0.82 M-0.44 36.65 C6.87 27.31, 14.65 18.84, 30.9 0.27 M-0.26 41.8 C6.94 32.73, 15.37 22, 38.78 1.58 M0.88 42.54 C7.91 33.05, 17.59 21.92, 36.05 0.37 M0.83 50.58 C14.78 34.03, 27.72 14.36, 42.99 -0.22 M-0.95 48.66 C12.65 33.76, 26.28 17.45, 42.31 -0.3 M0.58 52.63 C12.79 41.21, 24.78 26.93, 46.92 1.49 M-0.59 54.93 C15.06 37.71, 28.75 23.14, 46.9 0.31 M-0.65 59.44 C13.61 44.08, 26.64 31.21, 53.12 -2.15 M0.14 60.86 C19.02 37.84, 38.42 15.27, 52.84 0.62 M7.27 61.06 C23.71 39.18, 40.55 19.72, 59.03 1.98 M6.23 60.47 C20.49 43.72, 34.23 28.22, 58.07 -0.48 M11.39 61.03 C23.67 44.57, 39.63 29.05, 64.48 -0.31 M10.83 60.6 C31.95 35.57, 52.11 12.47, 64.13 -0.56 M14.83 61.11 C28.6 48.49, 37.42 34.19, 70.57 -1.65 M15.67 59.87 C28.2 46.9, 40.98 32.04, 69.28 0.48 M22.55 60.09 C34.13 45.23, 51.75 29.5, 75.16 1.72 M21 60.76 C32.89 48.5, 42.74 35.98, 75.2 -0.55 M28.05 61.39 C48.46 35.45, 67.9 11.61, 79.74 -1.31 M25.53 61.52 C37.79 46.97, 48.97 33.68, 80.12 0.02 M31.65 62.09 C45.27 45.84, 55.91 30.9, 84.95 -1.83 M30.94 60.46 C52.72 38.49, 72.48 14.3, 85.47 -0.23 M36.67 60 C51.98 44.66, 67.45 26.19, 89.45 1.86 M37.23 61.36 C57.2 38.92, 76.6 14.96, 89.07 0.33 M42.23 59.24 C56.9 45.38, 67.6 31.44, 97.39 -0.95 M41.82 60.22 C57.57 45.4, 70.38 27.61, 95.75 0.41 M48.18 61.06 C61.48 43.67, 80.37 23.13, 101.33 -0.51 M47.61 60.45 C58.79 47.24, 72 34.78, 100.52 -0.04 M52.55 60.59 C66.33 44, 81.63 29.17, 105.7 0.13 M52.7 60.89 C66.55 45.37, 79.72 31.63, 107.22 -0.78 M56.45 61.73 C76.29 41.92, 92.33 22.02, 109.72 2.01 M58.54 60.96 C76.42 39.24, 95.84 17.15, 111.72 0.82 M65.57 61.92 C79.81 42.6, 96.56 23.76, 118.19 1.74 M63.55 60.7 C75.95 46.76, 88.93 33.23, 115.83 -0.34 M67.06 62.95 C80.37 48.87, 91.41 32.05, 123.7 0.63 M69.31 61.91 C80.45 47.48, 90.29 36.04, 121.84 -0.82 M74.99 59.81 C92.06 40.42, 109.8 19.28, 126.86 -0.28 M74.21 60.22 C92.45 38.92, 111.98 18.05, 127.86 0.8 M79.31 59.45 C102.05 38.27, 119.71 13.89, 133.06 1.34 M79.58 60.2 C91.88 45.9, 103.35 32.92, 132.92 0.66 M83.23 61.63 C105.2 35.75, 124.66 16.07, 137.44 -0.06 M85.4 61.4 C103.96 39.11, 121.97 16.63, 137.03 0.82 M88.22 61.72 C111.8 38.16, 132.68 12.96, 142.29 -1.1 M90.4 61.55 C104.82 44.22, 120.99 27.07, 142.9 -0.75 M95.41 59.52 C112.27 39.78, 133.37 17.87, 150.04 1.32 M95.76 60.54 C112.08 42.23, 127.01 25.15, 148.09 1.02 M102.53 62.06 C114.02 45.62, 125.4 30.95, 152.63 -1.14 M101.23 61.59 C118.92 40.41, 136.84 19.27, 154.62 0.31 M105.38 60.4 C119.02 44, 131.9 33.38, 160.5 -1.46 M106.81 61.29 C120.66 44.3, 134.84 27.29, 159.19 -0.45 M110.71 60.51 C120.03 47.72, 132.23 36.88, 164.01 -0.44 M110.89 60.77 C128.87 40.59, 146.24 19.8, 164.79 -0.48 M117.71 59.99 C135.35 38.99, 155.18 16.85, 170.37 0.08 M115.94 59.68 C134.2 40.14, 151.95 17.87, 168.87 0.42 M122.92 62.94 C139.23 38.59, 159.37 14.69, 173.1 -1.9 M122.62 61.41 C138.01 44.33, 151.33 25.66, 175.02 -0.03 M125.69 60.76 C143.45 44.96, 155.47 25.2, 180.93 -1.81 M127.47 61.08 C148.89 36.95, 169.46 14.5, 179.07 0.5 M133.07 58.96 C146.97 41.09, 164.84 23.32, 187.27 0.37 M133.04 60.7 C153.75 37, 173.65 12.78, 184.81 -0.94 M137.31 61.98 C151.49 42.96, 166.84 26.48, 191.15 -1.1 M137.57 61.22 C150.31 47.66, 162.02 32.9, 190.11 0.52 M144.77 60 C163.02 38.97, 182.02 17.34, 194.63 -0.94 M143.15 61.68 C163.99 39.04, 183.42 16.05, 196.56 -0.4 M148.66 62.47 C163.25 41.96, 177.17 25.3, 199.76 0.03 M148.68 61.97 C164.57 42.86, 179.81 24.3, 201.69 0.06 M153.35 61.22 C174.68 37.78, 193.66 15.34, 206 -0.38 M153.35 60.25 C170.41 41.39, 186.67 23.81, 206.55 -1.28 M160.49 59.53 C171.87 46.73, 180.9 37.41, 211.17 1.17 M159.07 61.26 C178.65 36.5, 200.11 12.53, 211.92 0.58 M163.86 59.62 C182.69 39.54, 202.97 15.89, 216.9 -1.72 M164.44 60.17 C182.29 40.69, 201.05 19.34, 217.95 -1.08 M168.29 59.54 C186.51 42.44, 205.36 22.57, 221.54 1.7 M169.94 60.67 C188.25 39.51, 204.57 18.27, 222.3 0.38 M173.08 59.93 C190.08 42.83, 206.62 27.82, 229.61 0.07 M174.59 60.06 C189.4 44.77, 202.26 28.88, 227.82 -0.94 M178.95 60.89 C198.99 42.52, 214.22 20.35, 232.73 -1.22 M181.06 61.37 C196.11 42.74, 211.15 24.27, 232.7 -0.37 M187.49 60.7 C195.98 48.75, 208.22 34.14, 238.42 1.53 M186.38 60.4 C200.93 43.82, 216.51 26.1, 237.47 0.13 M192.08 60.75 C202.6 45.47, 216.98 27.59, 242.32 1.35 M191.06 61.89 C204.27 45.53, 219.85 28.32, 244.41 -0.64 M197.31 60.24 C216.83 39.17, 234.78 15.77, 250.36 1.74 M195.77 60.53 C209.22 44.8, 221.26 30.53, 248.04 1.19 M201.98 61.08 C221.95 39.09, 238.31 13.49, 252.3 1.64 M200.47 61.13 C221.39 39.24, 239.56 16.96, 253.77 1.95 M206.46 62.65 C223.09 42.92, 237.73 23.42, 253.27 7.6 M207.1 61.65 C218.67 46.36, 230.6 32.89, 253.72 7.74 M211.69 62.62 C225.68 43.01, 243.9 26.94, 253.82 15.21 M212.72 61.34 C227.14 43.97, 243.81 25.09, 253.98 14.22 M218.59 59.79 C232.33 45.67, 246.66 27.86, 253.59 17.76 M218.14 59.81 C224.71 52.84, 232.65 43.81, 254.45 18.55 M222.98 62.88 C234.92 46.25, 246.6 34.46, 252.81 23.78 M223.12 61.14 C234.48 46.14, 246.9 32.86, 253.65 25.2 M227.06 61.34 C236.68 48.73, 247.9 40.14, 253.1 30.6 M229 60.93 C234.79 53.32, 242.67 43.86, 253.67 32.76 M234.31 62.17 C238.47 51.96, 245.49 44.96, 253.71 39.41 M233.87 60.48 C239.9 53.69, 248.06 44.12, 253.63 37.35 M236.95 60.73 C243.17 56.79, 245.79 50.68, 253.7 44.32 M239.22 59.79 C242.21 55.04, 246.76 50.94, 254.11 44.89 M243.12 61.4 C248.59 56.34, 250.48 52.1, 254.47 48.36 M243.27 61.52 C246.91 57.25, 250.71 53.4, 253.28 49.14 M249.96 60.72 C251 59.88, 251.87 57.98, 253 55.45 M249.25 60.67 C250.42 59.59, 251.19 58.39, 253.42 55.71" stroke="#82c91e" stroke-width="0.5" fill="none"></path><path d="M-0.65 -1.45 C52.69 -1.32, 105.56 -2.65, 253.02 -1.57 M0.56 0.19 C68.99 -2.08, 137.76 -2.47, 252.12 0.78 M253.08 1.31 C250.56 14.59, 253.4 31.13, 250.44 62.38 M252.53 0.57 C251.5 12.53, 250.82 27.19, 251.75 60.9 M253.03 61.33 C182.96 60.44, 117.12 60.13, 0.7 60.06 M251.54 61.61 C166.08 59.26, 80.01 59.01, -0.7 60.11 M1.37 60.91 C1.75 43.83, 0.18 29.74, 1.11 0.75 M-0.15 60.69 C-1.42 37.85, -0.7 15.74, -0.29 0.17" stroke="#000000" stroke-width="1" fill="none"></path></g><g stroke-linecap="round" transform="translate(400.3999938964844 327.80003356933594) rotate(0 189.60000610351562 327.9999771118164)"><path d="M0 0 C0 0, 0 0, 0 0 M0 0 C0 0, 0 0, 0 0 M0.06 5.96 C1.48 5.39, 2.61 3.43, 5.14 0.07 M-0.44 6.45 C1.53 4.09, 3.67 1.43, 4.99 0.74 M1.03 12.36 C5.07 8.5, 8.79 3.33, 10.74 -0.18 M0.63 12.63 C3.54 7.86, 6.62 3.82, 10.43 0.51 M-1.33 18.78 C3.47 12.93, 7.99 8.08, 14.59 -1.11 M-0.69 18.93 C5.59 11.98, 10.02 6.46, 15.58 0.43 M1.93 23.53 C5.57 13.8, 13.9 8.01, 19.3 -1.83 M1.19 24.63 C5.85 19.02, 9.51 12.48, 20.43 -0.23 M-1.22 31.74 C6.94 25.4, 12.73 19.78, 25.27 -1.69 M-0.24 31.44 C6.75 21.76, 16.14 13.44, 25.8 -0.65 M-1.01 35.16 C10.94 24.94, 23.19 10.45, 32.87 1.64 M0.28 37.02 C6.36 28.43, 11.82 21.44, 31.93 -0.15 M1.19 42.73 C14.88 25.76, 29 10.62, 35.99 0.41 M0.99 41.75 C7.76 34.44, 15.77 23.95, 37.26 -0.64 M1.71 48.98 C12.71 34.81, 29.54 18.93, 44.17 -1.17 M-0.76 48.43 C10.8 36.37, 20.57 24.76, 42.78 -0.23 M-0.01 52.99 C10.54 44.13, 22.37 32.16, 48.1 1.43 M1.18 55.41 C15.86 37.66, 31 18.93, 46.89 0.19 M0.16 62.59 C12.84 48.88, 25.11 34.07, 53.72 -0.91 M0.64 60 C17.71 40.18, 36.72 18.83, 53.72 -0.69 M0.41 69.27 C13.55 49.24, 30.55 32.7, 59.75 1.34 M-1.25 67.64 C16.37 49.69, 31.43 32.23, 57.99 0.9 M1.87 72.6 C16.89 53.4, 31.93 32.65, 63.79 -1.52 M0.12 73.51 C18.4 50.19, 36.89 29.83, 63.35 0.11 M-0.58 78.74 C18.72 56.75, 35.53 38.85, 67.86 1.81 M-0.08 79.27 C23.03 51.77, 46.53 26.66, 69.23 0.97 M1.13 85.29 C18.99 62.57, 38.16 41.06, 72.46 -2.21 M0.63 85.12 C19.15 61.53, 40.36 38.51, 75.15 0.73 M-0.19 91.56 C28.16 56.6, 59.23 24.26, 78.14 0.24 M-0.19 92.29 C20.63 67.44, 42.82 44.4, 79.61 -0.71 M0.38 99.45 C25.89 71.22, 47.91 44.55, 83.57 0.52 M-1.15 97.14 C22.29 74.01, 41.74 50.04, 84.42 -0.4 M-1.22 103.88 C28.88 70.75, 55.3 39.94, 91.08 -0.26 M0.06 103.83 C21.5 80.2, 40.35 56.99, 89.52 -0.9 M-1.23 109.3 C21.31 87.11, 40.23 61.93, 96.75 -1.09 M0.79 110.01 C35.27 69.53, 69.62 31.06, 95.35 0.06 M1.35 116.54 C36.14 72.24, 75.92 27.24, 99.94 -0.85 M1.16 115.91 C21.87 89.1, 44.53 63.93, 99.69 -0.95 M-1.69 123.06 C25.52 89.89, 55.49 59.18, 105.4 -0.12 M0.84 121.82 C37.6 78.22, 76.64 33.24, 105.99 -0.69 M1.65 129.86 C31.58 94.15, 64.22 54.53, 112.77 -0.98 M-1.19 129.19 C34.19 87.73, 68.96 45.89, 112.23 0.19 M0.41 133.9 C38.45 90.09, 74.31 47.4, 118.06 -0.13 M-0.59 134.3 C42.49 83.22, 85 35.05, 116.58 0.24 M-0.46 138.61 C37.95 98.45, 72.24 59.38, 122.41 -0.39 M-0.47 140.95 C46.85 87.23, 92.58 33.2, 121.58 0.94 M-0.72 146.73 C36.71 105.93, 69.08 64.64, 127.01 -0.27 M1.26 146.56 C41.05 98.23, 82.03 50.54, 127.19 1.33 M-1.13 150.76 C41.7 107.85, 78.32 63.22, 132.47 -0.97 M-0.23 152.62 C45.88 98.84, 91.07 44.42, 131.66 0.11 M-0.68 157.13 C42.07 108.49, 82.37 61.92, 138.26 -0.56 M-0.14 158.87 C41.6 110.22, 84.87 61.87, 136.88 0.23 M-0.56 165.31 C46.34 110.78, 90.5 57.7, 143.3 -1.17 M-0.51 163.92 C52.97 100.74, 108.4 37.6, 142.45 -0.03 M-0.52 169.48 C51.97 111.68, 104.79 50.49, 148.55 0.45 M-0.84 170.66 C37.92 129.88, 74.43 88.31, 148.76 -0.21 M-0.57 177.5 C35.47 138.09, 72.52 96.94, 154.1 -1.49 M0.25 176.09 C47.47 123.03, 92.47 70.68, 153.53 -0.81 M-0.3 184.3 C44.66 128.82, 91.38 74.02, 158.23 1.46 M-0.03 183.71 C63.88 110.68, 126.84 36.62, 159.57 -0.41 M-0.4 190.86 C38.06 145.83, 72.22 104.18, 164.85 0.67 M0.21 188.48 C51.18 129.9, 103.17 69.79, 164.76 -0.51 M1.05 194.72 C54.89 131.98, 110.2 70.9, 169.04 0.27 M0.69 195.21 C46.71 143.01, 92.14 90.7, 169.56 0.86 M0.77 202.16 C61.48 131.51, 121.07 62.18, 174.54 -0.58 M-0.48 201.39 C61.64 129.28, 123.85 58.63, 175.55 -0.54 M0.39 205.44 C70.22 125.06, 140.43 44.84, 179.23 -1.37 M1 207.71 C55.05 145.38, 108.39 83.81, 179.64 0.72 M-1.38 214.29 C63.31 138.37, 129.57 64.12, 185.96 -1.4 M0.21 213.28 C52.83 149.48, 107.92 85.44, 185.64 0.51 M0.93 221.09 C68.62 138.89, 137.68 60.06, 191.6 0.1 M0.23 219.21 C66.72 142.19, 135.3 64.03, 190.49 -0.45 M0.14 225.17 C49.13 165.88, 102.03 108.5, 197.69 -0.15 M0.12 225 C67.02 148.92, 132.81 72.81, 195.82 -0.3 M0.67 233.16 C55.76 167.97, 108.6 104.04, 202.63 -0.39 M-0.8 231.89 C56.14 170.23, 110.05 107.53, 201.87 -0.19 M-0.15 236.39 C48.2 184.83, 91.22 130.67, 206.2 -1.27 M0.79 237.95 C52.01 178.7, 101.74 121.11, 207.03 -0.26 M-0.58 244.55 C51.35 184.11, 102.62 124.42, 213.3 0.23 M-0.09 243.69 C61.97 171.4, 124.76 99.34, 212.08 0.73 M-0.93 249.19 C42.67 199.37, 86.84 148.27, 218.57 0.76 M0.1 249.88 C63.66 176.59, 127.49 104.26, 218.25 -0.86 M-0.54 255.58 C88 154.66, 174.46 54.31, 221.65 -0.27 M0.16 256.46 C51.26 197.09, 102.53 139.29, 222.9 -0.42 M0.64 262.93 C75.91 175.43, 151.68 89.85, 228.25 -0.01 M-0.05 262.56 C72.69 176.23, 146.67 91.44, 228.87 0.16 M0.66 268.92 C70.61 183.93, 143.76 102.45, 232.3 0.53 M0.87 267.54 C70.63 187.24, 140.38 105.01, 233.22 0.39 M1.3 273.26 C83.48 176.95, 166.84 80.25, 238.28 0.76 M0.14 274.45 C69.13 194.98, 136.58 117.39, 238.54 0.69 M-0.98 281.23 C90.18 176.95, 182.34 70.34, 244.11 0.19 M-0.68 280.61 C71.34 199.03, 143.27 116.38, 243.85 -0.29 M1.1 285.96 C87.96 186.51, 176.09 83.76, 248.79 -0.41 M0.33 286.51 C78.94 197.01, 155.62 107.69, 249.09 0.02 M0.59 292.11 C66.35 218.31, 131.94 140.77, 254.78 0.62 M-0.01 292.7 C53.61 229.61, 108.35 166.89, 254.19 0.5 M1.14 298.21 C69.59 222.39, 138.08 143.61, 259.71 1.2 M0.17 298.38 C57.16 233.21, 114.45 168.85, 259.89 -0.15 M-1.03 304.24 C58.87 235.48, 117.68 166.74, 264.52 -0.69 M0.05 304.72 C56.53 239.02, 113.89 173.86, 265.37 0.09 M-0.62 311.03 C90.85 209.31, 181.09 104.36, 269.76 -0.09 M0.28 310.99 C60.59 242.68, 120.11 174.52, 270.1 0.61 M0.54 316.9 C57.47 252.92, 113.18 188.91, 276.63 -0.05 M0 316.46 C79.13 223.89, 160.1 130.28, 276.1 -0.59 M-1 322.43 C76.65 236.1, 151.95 149.9, 281.43 0.33 M-0.19 322.9 C56.91 255.11, 115.65 187.39, 280.74 -0.3 M-0.25 328.31 C90.22 223.53, 180.86 118.68, 285.52 -0.18 M-0.07 328.95 C107.85 206.73, 214.89 84.02, 286.77 -0.29 M0.76 335.15 C86.89 237.51, 171.36 138.75, 291.19 0.12 M-0.25 335.39 C81.24 243.22, 162.76 150.45, 290.89 0.68 M-0.5 341.54 C113.22 210.89, 229.34 77.3, 297.2 -0.09 M-0.56 341.58 C68.59 263.96, 136.5 185.98, 296.67 0.01 M0.99 346.41 C84.09 250.57, 167.95 153.88, 301.25 0.06 M0.44 346.93 C120.44 208.47, 241.18 68.86, 302.28 0.01 M-0.21 354.05 C63.41 281.42, 128.32 206.45, 307.26 -0.42 M-0.24 353.73 C111.45 223.59, 224.43 94.18, 307.46 -0.09 M0.2 359.64 C69.06 277.8, 139.12 197.61, 311.97 0.68 M0.71 359.36 C106.9 237.05, 213.64 113.9, 312.91 -0.08 M-0.76 365.66 C83 269.04, 166.92 171.6, 318.11 -0.56 M0.3 365.75 C107.78 243.57, 213.35 121.58, 318.66 -0.08 M0.55 372.74 C120.21 233.78, 241.62 93.37, 323.11 -0.25 M-0.2 372.35 C116.7 237.01, 233.79 102.31, 323.44 -0.14 M0.02 377.95 C75.02 293.93, 147.07 209.54, 328.35 0.28 M0.06 377.47 C71.71 296.26, 143.31 213.56, 328.63 -0.02 M-0.77 383.82 C101.11 267.87, 203 152.31, 333.19 0.12 M0.05 383.87 C100.37 268.64, 200.41 153.58, 333.75 -0.11 M-0.47 390.56 C82.33 294.52, 164.15 200.52, 339.03 -0.82 M0.69 390.06 C116.98 254.53, 234.51 119.27, 339.84 0.04 M0.44 395.82 C75.18 309.97, 148.77 224.54, 345.15 0.27 M0.06 396.49 C101.09 280.42, 201.37 165.61, 344.22 0.28 M0.6 403.07 C92.31 296.71, 182.98 191.3, 348.86 0.7 M-0.37 402.41 C133.89 248.81, 267.46 94.45, 349.53 0.33 M0.86 407.95 C97.34 298.06, 192.67 188.09, 355.81 0.22 M0.29 408.36 C89.21 305.65, 179.13 201.79, 355.4 0.24 M0.31 414.23 C113.49 285.73, 224.06 157.15, 360.8 0.19 M-0.33 414.9 C83.39 318.76, 167.11 222.64, 360.09 0.37 M0.46 421.3 C88.64 318.74, 177.9 217.41, 366.27 0.72 M-0.33 420.74 C74.66 334.58, 149.34 249.17, 365.98 -0.07 M-0.34 427.38 C74.98 339.85, 151.49 253.52, 370.99 0.4 M-0.23 426.32 C124.25 283.28, 249.01 139.58, 370.67 -0.09 M-0.54 433.38 C93.99 326.78, 187.82 218.01, 376.39 -0.85 M-0.55 433.01 C126.64 287.28, 253.57 140.9, 376.38 0.08 M0.65 438.57 C90.36 333.39, 181.06 230.01, 381.04 0.31 M0.48 438.46 C144.21 271.96, 287.83 106.46, 380.37 1.07 M0.05 445.04 C94.7 336.86, 188.59 227.46, 380.53 7.58 M-0.34 445.13 C133.36 292.74, 264.6 141.17, 380.22 7.51 M-0.69 451.71 C113.42 320.14, 227.44 189.5, 380.79 13.84 M-0.14 451.63 C144.37 286.73, 288.23 121.01, 380.89 12.9 M0.17 456.67 C126.69 309.12, 255.02 162.06, 380.98 19.35 M-0.29 457.5 C118.65 321.24, 235.56 187.3, 380.46 19.85 M0.36 463.51 C136.65 306.59, 274.01 149.32, 380.72 25.24 M-0.35 463.64 C149.87 289.8, 301.53 116.09, 380.67 25.71 M0.11 469.74 C88.56 367.35, 176.51 265.76, 380.84 31.82 M0.57 468.84 C148.13 299.88, 296.2 129.93, 381.07 31.74 M-0.34 475.26 C143.69 309.1, 288.72 144.18, 380.17 37.73 M0.19 475.51 C89.04 372.75, 178.11 269.25, 380.61 37.6 M-0.63 481.99 C75.04 392.42, 150.88 304.8, 381.21 43.53 M-0.3 482.21 C131.9 331.1, 264.34 178.34, 380.69 43.75 M0.45 487.37 C149.1 316.99, 298.76 143.82, 380.43 49.85 M0.21 488.05 C124.24 343.69, 249.56 198.95, 380.37 49.71 M0.15 494.74 C130.17 343.41, 260.31 193.24, 380.41 56.11 M-0.34 494.35 C87.3 393.99, 173.46 294.42, 380.19 56.53 M0.66 499.32 C92.51 395.15, 184.33 290.64, 380.15 61.3 M0.59 499.86 C99.09 386.7, 196.81 274.42, 380.63 61.98 M-0.6 505.5 C112.05 379.98, 223.23 251.53, 380.67 68.75 M-0.2 506.22 C100.99 391.33, 200.73 276.8, 380.19 68.22 M-0.49 512.85 C87.37 412.98, 174.5 312.68, 380.29 74.46 M-0.7 512.41 C89.51 408.02, 179.76 304.52, 381.21 74.27 M0.24 518.48 C120.38 378.81, 240.74 239.82, 380.15 80.45 M0.05 517.98 C144.26 352.33, 288.07 186.7, 380.66 80.2 M-0.73 524.94 C99.18 409.24, 199.83 294.44, 381.08 86.35 M0 524.28 C84.79 427.41, 169.63 329.58, 380 86.81 M0.88 530.22 C85.82 431.21, 171.25 331.4, 381.18 92.51 M-0.09 530.15 C110.95 404.64, 220.14 278.83, 380.8 92.85 M0.57 536.29 C123.11 393.76, 248.95 250.08, 380.6 99.2 M-0.25 536.89 C80.85 443.79, 161.02 352.3, 380.84 99.07 M-0.38 542.26 C97.53 427.48, 198.91 312.82, 380.81 103.73 M-0.26 543.17 C149.07 371.65, 296.82 200.76, 381.13 104.29 M-0.59 549.14 C151.82 373.76, 303.27 198.35, 381.31 111.41 M0 548.63 C125.79 403.88, 251.63 259.63, 380.3 110.77 M-0.19 555.78 C78.08 465.33, 154.02 375.88, 380.54 116.74 M-0.17 554.75 C107.03 433.99, 212.19 312.41, 380.05 117.15 M0.08 560.83 C128.02 416.57, 253.73 269.92, 380.62 123.31 M-0.06 560.86 C135.72 402.63, 272.57 245.97, 380.39 123.22 M0.36 567.31 C99.47 450.95, 198.83 337.31, 380.15 129.4 M0.04 567.23 C85.76 468.05, 173.58 367.52, 380.1 129.58 M-0.64 573.35 C141.71 406.24, 285.31 241.71, 380.66 135.52 M-0.54 573.46 C79.19 482.6, 158.25 391.3, 381.03 134.89 M0.75 579.33 C149.21 408.83, 298.31 237.69, 380.96 141.74 M0.44 579.37 C121.86 440.26, 241.32 302.32, 380.38 141.72 M-0.51 586.27 C98.78 473.6, 197.06 360.81, 380.41 147.29 M-0.24 585.39 C83.33 486.03, 169.16 388.3, 380.64 148.17 M-0.43 590.58 C141.53 427.42, 284.73 261.6, 381.28 153.69 M0.22 591.46 C112.86 462.7, 223.57 334.36, 380.39 153.13 M0.26 597.36 C111.23 466.22, 223 338.05, 380.73 159.1 M-0.21 597.23 C113.85 463.86, 229.25 331, 380.78 159.51 M-0.54 604.05 C129.31 457.05, 258.21 308.55, 381.3 165.09 M-0.13 604.12 C116.66 468.07, 234.18 332.63, 380.57 165.52 M0.82 609.9 C110.72 479.96, 221.4 352.71, 381.23 171.58 M0.14 609.36 C140.75 447.14, 282.02 284.87, 380.94 171.63 M-0.66 616.77 C87.92 512.85, 177.7 409.75, 380.1 178.81 M0.21 615.64 C151.42 442.33, 302.74 267.88, 380.46 178.3 M-0.15 621.46 C90.59 518.67, 179.62 417.16, 380.48 183.3 M0.31 621.53 C111 492.85, 222.72 363.6, 380.83 183.6 M-0.7 628.3 C136.3 467.29, 274.42 308.71, 380.61 190.56 M-0.39 627.75 C148.26 457.37, 297.01 286.76, 380.1 190 M0.47 635.06 C150.96 458.24, 303.63 282.79, 380.98 195.5 M-0.69 634.79 C146.93 466.75, 293.48 298.59, 380.91 196.08 M0.75 640.14 C93.25 529.48, 189.09 419.89, 380.13 202.17 M0.25 639.78 C148.3 467.69, 297.74 295.89, 380.51 202.34 M-0.71 645.72 C92.61 539.38, 185.7 431.73, 379.66 208.9 M-0.55 646.48 C107.18 522.22, 215.6 397.55, 380.53 208.43 M0.27 652.49 C137.9 493.1, 275.46 334.37, 380.11 214.65 M-0.14 652.2 C119.83 515.04, 239.37 377.06, 381.11 214.46 M0.56 657.13 C121.66 517.55, 243.78 378.2, 380.96 221.39 M0.92 656.86 C107.03 535.74, 212.41 414.01, 380.13 220.92 M5.81 656.63 C83.48 568.6, 159.4 482.16, 381.52 226.45 M5.99 657.08 C136.54 509.18, 265.88 360.48, 381.06 226.45 M12.1 657.35 C142.25 506.98, 273.71 356.02, 380.84 233.46 M11.7 657.24 C156.17 488.07, 302.29 320.66, 380.94 233.2 M16.43 657.24 C92.31 570.71, 167.99 483.66, 380.19 239.9 M16.96 657.49 C112.97 545.21, 210.34 434.03, 380.62 238.91 M23.33 657.16 C156.73 505.59, 289.02 352.3, 381.45 244.29 M22.83 656.71 C129.01 534.49, 234.94 413.21, 380.8 244.95 M27.05 657.44 C115.28 554.04, 205.15 451.17, 379.83 250.92 M27.72 657.09 C152.58 515.63, 275.81 372.94, 380.15 251.14 M32.4 657.46 C161.49 510.59, 289.02 362.96, 381.63 256.59 M33.49 657.13 C164.51 505.68, 296.57 353.73, 381.08 257.01 M38.64 656.98 C154.83 521.96, 274.22 385.56, 380.88 264.01 M38.18 656.98 C123.26 558.2, 210.41 458.49, 380.58 263.65 M44.19 657.42 C124.02 563.62, 203.27 471.73, 380.29 270.09 M43.78 656.96 C142.57 544.3, 241.6 430.86, 380.03 269.32 M48.14 656.69 C159.85 530.61, 269.89 403.82, 380.77 275.58 M48.97 657.42 C158.35 531.82, 267.21 407.47, 380.86 275.55 M55.05 656.92 C138.85 559.72, 222.36 463.72, 379.81 282.54 M54.39 657.19 C125.97 576.03, 196.15 494.66, 380.64 281.52 M58.73 657.7 C186.32 511.51, 314.42 365.46, 380.41 286.72 M59.48 657.43 C158.72 544.52, 257.59 431.55, 380.87 287.33 M64.83 657.35 C189.35 515.1, 312.33 375.42, 381.41 293.41 M65.34 656.95 C180.03 525, 294.54 392.07, 380.64 293.86 M69.59 657.37 C180.27 530.16, 288.87 405.23, 379.56 300.05 M69.81 656.73 C137.31 578.8, 205.92 499.91, 380.38 300.38 M76.28 657.54 C189.8 522.42, 304.45 389.63, 380.1 304.92 M75.48 657.2 C167.72 550.95, 259.34 445.43, 380.33 306.24 M81.57 656.5 C188.99 536.83, 294.36 413.84, 380.47 312.54 M80.48 657.22 C165.53 558.89, 250.5 461.35, 380.46 311.87 M85.47 655.91 C162.21 567.57, 239.08 479.08, 380.21 317.37 M86.49 656.87 C150.42 582.69, 215.96 507.9, 380.98 317.46 M90.56 657.46 C204.77 527.09, 318.82 396.24, 381.03 323.9 M91.09 657.23 C207.86 523.83, 323.29 390.3, 380.82 324.07 M96.5 658.3 C169.1 574.15, 240.73 490.29, 380.24 330.17 M96.37 657.66 C171.03 571.53, 245.73 485.15, 380.88 330.33 M101.94 657.24 C212.31 530.93, 320.71 406.65, 379.83 336.89 M101.56 657.25 C176.71 572.78, 249.81 488.67, 381.08 336.44 M106.16 656.35 C181.3 573.17, 254.34 489.03, 381.36 343.74 M107.15 657.83 C163.7 592.72, 218.96 529.87, 381.01 342.6 M112.21 658.05 C195.73 560.31, 280.11 462.62, 380.48 349.98 M112.84 656.74 C182.88 575.79, 253.01 495.64, 379.72 349.3 M116.64 657.03 C221.63 536.73, 325.3 417.54, 380.36 354.83 M117.53 656.91 C210.46 551.94, 303.37 444.73, 380.82 354.59 M123.96 656.06 C189.16 583.63, 255.67 508.67, 380.64 361.01 M123.11 656.72 C214.81 550.66, 307.8 443.87, 380.73 361.39 M127.13 658.2 C179.39 596.43, 231.02 536.14, 379.98 367.32 M128.15 657.84 C197.04 577.56, 265.17 498.55, 380.36 366.91 M134.08 658.02 C217.58 557.66, 304.49 460.76, 379.35 373.47 M133.7 657.12 C188.62 592.66, 243.12 528.6, 380.2 372.8 M138.35 658.33 C206.05 582.09, 271.29 507.14, 380.25 379.63 M139.37 656.92 C199.56 589.83, 258.72 520.25, 380.83 379.1 M143.8 657.23 C208.14 584.87, 270.25 512.55, 381.85 385.34 M144.26 657.16 C216.76 574.3, 287.78 493.52, 380.81 384.9 M149.09 658.01 C202.65 595.48, 255.32 533.09, 379.24 391.82 M149.27 657.11 C200.56 599.79, 249.73 542.54, 380.43 392.06 M155.8 658.11 C223.57 577.73, 291.63 499.81, 380.3 398.04 M155.57 657.16 C231.4 571.78, 305.21 485.79, 381.37 396.93 M159.76 656.41 C234.53 574.22, 307.04 490.3, 380.43 404.3 M160.55 656.81 C213.93 594.71, 267.38 533.68, 380.83 403.19 M164.76 658.1 C231.11 578.39, 298.45 503.51, 379.11 411.02 M166.39 656.75 C216.01 597.78, 268.27 538.27, 380.03 409.69 M171.43 657.99 C233.29 586.82, 293.31 516.74, 381.49 415.75 M170.99 656.5 C222.47 597.66, 274.78 536.5, 380.46 415.55 M177.23 656.14 C249.1 570.34, 323.83 484.71, 378.98 422.47 M176.59 656.83 C226.81 596.16, 279.03 536.12, 380.56 422.02 M181.51 657.55 C225.62 607.32, 266.62 560.02, 379.52 428.07 M181.93 657.03 C235.67 592.89, 290.9 530.84, 381.02 427.49 M185.79 657.53 C242.24 595.93, 294.05 532.86, 379.07 435.58 M186.68 656.16 C259.45 574.56, 331.23 491.61, 381 434.6 M190.64 657.87 C247.8 595.03, 302.82 528.94, 380.97 440.24 M192.17 657.41 C231.81 611.4, 271.05 565.1, 380.69 440.81 M198.61 658.13 C252.16 594.62, 305.59 531.69, 381.32 445.25 M197.13 656.29 C250.05 594.88, 302.59 535.24, 380.84 446.12 M201.73 657.26 C259.01 592.56, 315.66 527.7, 379.47 452.38 M202.95 656.78 C254.51 598.67, 304.8 540.77, 380.12 452.76 M209 656.92 C275.48 577.82, 344.19 499.16, 382.19 458.12 M207.58 656.52 C258.1 597.41, 307.51 540.72, 381.4 457.79 M212.29 656.82 C267.55 593.51, 323.7 529.27, 380 466.1 M212.76 656.93 C273.07 586.68, 334.43 517.74, 381.02 464.19 M216.69 659.06 C254.6 614.6, 288.11 575.51, 379.27 470.83 M218.51 656.71 C273.26 590.89, 330.22 524.44, 379.72 470.4 M225.12 655.88 C256.58 619.48, 289.71 582.81, 382.07 476.25 M224.34 656.88 C264.25 610.24, 302.95 565.59, 380.11 476 M230.07 658.45 C274.43 606.39, 318.46 552.27, 379.37 483.68 M228.11 656.82 C263.3 616.61, 299.43 577.13, 379.88 483.67 M233.72 656.88 C275.75 611.84, 312.97 565.79, 379.78 489.71 M234.22 656.72 C293.18 590.51, 350.31 524.48, 380.46 489.08 M240.51 656.52 C272.31 618.4, 308.92 575.68, 379.96 494.02 M239.1 657.37 C295.63 593.7, 350.94 530.44, 380.3 494.86 M243.89 657.01 C277.94 620.55, 311.09 580.9, 379.83 501.41 M245.02 656.88 C295.49 597.75, 346.72 537.87, 380.32 500.66 M249.61 658.43 C298.48 599.92, 347.82 543.88, 379.54 508.7 M250.71 657.13 C285.74 617.96, 319.82 579.35, 380.24 506.59 M255.56 656.44 C297.68 606.01, 341.82 558.71, 378.66 513.06 M256.41 657.34 C282.72 623.57, 310.21 592.98, 379.52 514.38 M261.04 657.16 C292.91 621.39, 324.18 583.55, 379.33 517.74 M259.76 656.44 C305.49 605.13, 350.48 553.98, 380.22 518.69 M267.62 657.19 C308.23 609.52, 346.6 561.35, 381.95 526.16 M267.23 656.38 C298.6 618.88, 331.9 580.42, 380.7 526.05 M270.64 657.77 C294.29 629.11, 316.95 607.27, 380.57 530.87 M271.86 656.66 C298.56 627.7, 324.46 595.71, 380.44 532.87 M275.23 657.03 C317.74 612.57, 355.51 567.29, 381.73 535.95 M276.67 657.66 C316.37 610.98, 354.05 566.17, 381.06 538.12 M283.89 656.13 C317.29 618.32, 347.21 582.79, 381.29 545.47 M282.5 657.06 C309.83 623.64, 339.77 589.78, 380.48 545 M288.52 655.46 C312.1 628.65, 335.97 603.1, 381.87 550.4 M287.31 657.25 C309.18 632.18, 331.99 605.73, 380.64 550.05 M294.03 656.84 C318.99 625.29, 346.54 593.91, 382.36 556.85 M292.06 657.76 C318.66 626.79, 345.72 595.25, 380.3 556.61 M298.37 655.69 C326.71 623.94, 357.51 588.58, 379.38 560.95 M298.06 656.62 C318.41 634.14, 337.36 612.3, 380.72 561.94 M304.1 655.22 C323.48 630.46, 344.18 606.75, 380.09 569.33 M302.78 656.81 C332.15 622.14, 361 589.95, 379.85 568.87 M310.46 658.63 C321.85 640.69, 336.74 624.36, 381.02 573.52 M309.21 657.63 C330.14 631.88, 352.27 608.04, 381.38 574.51 M312.92 655.3 C329.9 636.48, 346.6 616.79, 379.54 578.92 M313.73 657.13 C338.7 627.71, 364.4 598.67, 381.47 580.33 M319.25 656.95 C335.03 642.12, 347.53 625.01, 381.34 586.98 M319.4 657.5 C342.9 630.7, 365.21 604.61, 380.6 586.65 M325.08 655.85 C341.35 634.75, 359.2 617.28, 379.92 592.13 M323.86 657.52 C340.13 640.32, 354.71 624.87, 380.21 592.7 M329.32 657.75 C344.13 641.05, 354.61 627.54, 379.36 600.19 M329.98 656.65 C346.9 635.58, 365.98 613.87, 379.87 599.37 M336.96 656.33 C346.47 643.42, 361.09 626.32, 379.19 604.89 M334.99 657.7 C353.01 637.37, 371.74 615.34, 381.4 604.8 M339.99 657.62 C353.04 639.72, 370.66 621.54, 379.84 610.71 M340.62 656.57 C347.44 646.61, 357.05 638.44, 380.55 611.58 M346.72 658.93 C354.36 646.08, 362.29 638.66, 380.13 617.15 M344.78 657.26 C353.25 647.63, 361.95 640.06, 379.82 616.12 M351.41 657.1 C359.17 648.79, 364.71 640.68, 378.71 621.59 M350.4 657.43 C362.08 645.71, 373.2 631.78, 380.2 623.83 M356.3 658.58 C362.37 646.79, 369.34 641.02, 378.92 627.79 M355.76 656.69 C365.59 647.31, 373.64 637.52, 381.23 628.77 M361.16 655.72 C366.37 651.29, 370.32 644.77, 379.62 636.31 M361.37 658.06 C368.23 648.86, 375.2 641.03, 380.2 636.3 M365.41 656.89 C373.75 652.44, 376.83 646.8, 382.57 641.43 M366.3 656.36 C370.86 652.29, 375.87 645.51, 380.76 641.26 M373.05 658.22 C373.98 654.24, 378.88 649.79, 380.22 648.71 M372.66 657.52 C373.87 654.72, 377.11 651.43, 380.73 648.04 M377.65 656.77 C378.84 655.59, 379.2 654.69, 380.67 654.14 M377.67 657.03 C378.23 655.99, 379.25 655.26, 380.48 653.96" stroke="#82c91e" stroke-width="0.5" fill="none"></path><path d="M1.17 -0.99 C112.63 -2.04, 225.25 -1.81, 379.22 0.92 M0 0.56 C150.08 -2.59, 300.76 -1.6, 378.78 0.38 M378.57 0.78 C381.16 212.85, 381.07 426.38, 378.85 655.89 M378.81 0.23 C380.71 221.27, 381 441.83, 379.02 656.32 M379.96 657.02 C267.75 658.19, 156.03 657.93, -0.36 655.58 M378.69 656.27 C284.1 658.38, 190.17 658.62, 0.04 656.14 M0.11 655.66 C1.62 488.68, 1.09 320.86, 0.57 0.55 M0.25 655.65 C1.67 477.05, 1.41 298.54, 0.2 -0.12" stroke="#000000" stroke-width="1" fill="none"></path></g><g transform="translate(489.8999938964844 215.5) rotate(0 104.5 12.5)"><text x="104.5" y="18" font-family="Virgil, Segoe UI Emoji" font-size="20px" fill="#000000" text-anchor="middle" style="white-space: pre;" direction="ltr">Spawn workerThreads</text></g><g stroke-linecap="round"><g transform="translate(237.59950959285845 402.6706281106841) rotate(0 102.69437664715451 1.9337551042530094)"><path d="M-0.72 0.92 C33.81 1.49, 171.86 2.08, 206.11 2.55 M1.1 0.36 C35.66 1.11, 171.86 2.72, 205.65 3.51" stroke="#000000" stroke-width="1" fill="none"></path></g><g transform="translate(237.59950959285845 402.6706281106841) rotate(0 102.69437664715451 1.9337551042530094)"><path d="M178.82 14.84 C181.41 10.77, 189.32 10.84, 205.54 2.53 M176.29 13.79 C188.95 8.72, 199.76 5.38, 204.83 2.66" stroke="#000000" stroke-width="1" fill="none"></path></g><g transform="translate(237.59950959285845 402.6706281106841) rotate(0 102.69437664715451 1.9337551042530094)"><path d="M179.17 -5.68 C181.54 -5.48, 189.37 -1.14, 205.54 2.53 M176.64 -6.73 C189.23 -3.78, 199.9 0.9, 204.83 2.66" stroke="#000000" stroke-width="1" fill="none"></path></g></g><g transform="translate(507.4000549316406 339.29994201660156) rotate(0 94 17.5)"><text x="94" y="25" font-family="Virgil, Segoe UI Emoji" font-size="28px" fill="#000000" text-anchor="middle" style="white-space: pre;" direction="ltr">WorkerThread</text></g><g stroke-linecap="round" transform="translate(479.7499694824219 459.3999481201172) rotate(0 56.399993896484375 22.4000244140625)"><path d="M0 0 C0 0, 0 0, 0 0 M0 0 C0 0, 0 0, 0 0 M0.11 7.05 C0.49 5.71, 2.39 4.06, 5.09 0.77 M-0.65 6 C0.89 5.06, 2.26 3.54, 5.02 -0.04 M1.31 13.59 C3.95 9.29, 4.93 5.66, 10.73 -0.82 M-0.37 12.09 C2.18 8.81, 5.03 6.34, 11.31 -0.48 M0.29 16.78 C3.75 11.91, 8.79 8.54, 17.23 2.32 M-0.86 18.84 C4.43 12.13, 9.25 5.72, 14.92 1.22 M-0.98 23.84 C6.99 17.94, 12.72 8.19, 21.66 1.27 M0.79 23.91 C5.17 17.33, 11.07 11.02, 21.61 0.62 M-1.01 28.51 C6.18 23.3, 14.44 12.26, 25.67 1.02 M0.54 30.09 C10.82 18.26, 20.99 8.31, 26.38 0.78 M-0.9 37.61 C9.96 27.83, 16.22 17.23, 32.91 -1.25 M-0.62 36.43 C7.93 27.56, 18.63 17.08, 32.28 0.22 M-1.8 40.52 C10.05 29.83, 23.34 15.18, 38.02 -1.45 M-0.31 42.63 C11.85 29.89, 22.94 17.2, 36.78 0 M1.22 45.97 C17.64 28.4, 33.18 11.09, 44.06 0.13 M2.59 46.15 C17.99 28.86, 34.61 8.59, 43.39 -0.27 M9.36 46.61 C23.58 30.63, 39.75 11.67, 47.45 1.75 M8.38 46.01 C21.58 31.41, 35.07 14.64, 47.85 0.72 M13.09 46.35 C22.8 32.9, 31.47 21.84, 51.41 0.91 M12.72 46.43 C22.27 35.69, 31.36 25.69, 53.74 0.02 M17.43 48.15 C33.32 26.4, 51.54 8.97, 58.87 1.25 M18.17 45.92 C31.09 31.77, 44.34 18.58, 58.7 -0.4 M23.68 48.56 C36.99 29.61, 50.5 13.85, 61.95 1.34 M23.06 46.07 C37.55 31.52, 51.11 14.78, 64.02 0.34 M26.77 46.56 C43.78 31.59, 59.12 12.63, 66.88 1.47 M29.16 45.7 C39.2 34.01, 49.16 22.7, 68.85 -0.8 M32.25 46.39 C46.66 32.27, 58.17 16.65, 75.42 0.47 M33.81 45.93 C43.9 37.44, 53.12 25.3, 73.81 -0.73 M37.71 46.28 C53.47 29.26, 66.49 15.15, 77.82 -1.42 M39.6 46.26 C54.2 28.03, 69.37 10.31, 79.2 0.91 M45.74 45.39 C56.07 28.82, 69.14 14.07, 86.25 -1.85 M44.54 45.71 C58.41 29.19, 73.31 13.72, 84.58 -0.22 M48.68 45.25 C61.9 34.02, 73.42 18.15, 91.74 -1.44 M49.01 47.61 C61.49 34.57, 71 22.48, 91.03 0 M56.85 44.92 C68.42 29.3, 85.4 12.87, 97.61 0.97 M55.25 46.99 C66.32 35.14, 76.08 22.42, 94.69 0.18 M60.77 45.97 C72.7 30.94, 85.75 19.6, 100.41 -0.83 M59.74 46.89 C72.16 31.66, 84.25 18.13, 101.02 0.58 M65.96 48.1 C75.63 33.9, 86.17 26.22, 107.38 0.34 M65.29 46.2 C78.09 32.48, 90.44 18.3, 106.39 -0.86 M71.84 45.94 C84.72 32.89, 95.7 18.38, 109.33 -0.07 M70.08 45.82 C81.21 33.92, 92.53 23.36, 112.26 0.63 M75.19 47.84 C91.21 30.78, 104.47 11.49, 116.18 0.69 M76.43 45.64 C86.82 34.9, 98.19 21.94, 114.86 0.96 M81.1 48.72 C93.35 35.6, 104.14 24.29, 116.48 8.47 M81.86 46.75 C91.54 35.77, 100.04 24.89, 113.98 7.3 M86.38 44.83 C94.72 38.29, 102.5 26.82, 114.78 12.52 M87.81 46.45 C92.97 38.7, 99.09 32.8, 114.56 13.59 M90.5 46.63 C98.05 38.99, 106.47 32.61, 116.73 21.35 M92.78 46.4 C99.02 37.89, 105.58 29.32, 114.97 20.75 M99.06 45.55 C101.8 38.46, 110.82 32.47, 113.75 27.76 M96.98 45.65 C103.9 38.35, 111.23 31.59, 115.95 26.96 M102.69 46.8 C104.17 43.82, 107.43 39.68, 115.95 31.71 M103.43 46.82 C106.06 43.52, 109.2 38.58, 114.77 32.75 M108.34 47.27 C108.74 45.2, 110.6 42.25, 113.94 38.22 M108.51 46.71 C109.99 43.78, 112.08 42.35, 114.44 38.35" stroke="#228be6" stroke-width="0.5" fill="none"></path><path d="M0.52 -0.18 C27.21 -0.48, 59.31 -0.08, 111.23 -0.08 M0.3 0.6 C43.19 -0.89, 85.81 0.16, 113.65 0.24 M111.57 -0.07 C111.3 16.14, 112.76 32.57, 114.44 45.8 M113.08 -0.37 C113.5 16.72, 113.81 34.14, 111.84 44.56 M113.94 43.76 C75.82 44.1, 40.82 44.85, 1.91 43.86 M113.61 45.38 C85.18 43.36, 57.42 43.36, 0.28 45.64 M-0.29 46.22 C-1.12 36.2, 1.52 27.11, -0.4 0.52 M0.01 44.14 C0.22 31.58, 0.94 17.3, 0.51 -0.29" stroke="#000000" stroke-width="1" fill="none"></path></g><g transform="translate(491.14996337890625 469.2999725341797) rotate(0 45 12.5)"><text x="45" y="18" font-family="Virgil, Segoe UI Emoji" font-size="20px" fill="#000000" text-anchor="middle" style="white-space: pre;" direction="ltr">init class</text></g><g stroke-linecap="round" transform="translate(479.34991455078125 545.9999847412109) rotate(0 56.399993896484375 22.4000244140625)"><path d="M0 0 C0 0, 0 0, 0 0 M0 0 C0 0, 0 0, 0 0 M-0.66 6.11 C0.97 3.57, 2.85 2.92, 4.98 -0.39 M-0.22 6.63 C1.55 4.01, 3.54 2.44, 4.86 0.31 M-1.03 11.68 C2.91 7.85, 7.71 5.03, 10.36 -1.46 M-0.47 12.6 C3.2 7.94, 6.51 4.91, 11.27 -0.76 M1.02 17.23 C6.92 13.88, 11.23 6.61, 15.16 1.56 M0.64 19.15 C5.14 12.27, 11.99 4.52, 15.45 0.73 M-1.3 25.83 C6.35 20.88, 9.91 14.73, 21.28 1.36 M-0.16 24.18 C8.44 15.08, 15.59 6.73, 21.33 0.4 M1.24 31.51 C10 21.71, 18 9.18, 28.23 0.94 M-0.14 30.74 C8.16 21.68, 17.96 11.04, 27.23 0.81 M0.09 38.19 C8.72 25.83, 17.38 18.18, 33.49 -1.64 M0.01 37.74 C8.81 26.99, 16.68 17.67, 32.21 -0.37 M1.51 44 C15.46 25.13, 28.25 11.62, 36.04 0.61 M0.09 41.84 C12.55 26.87, 26.14 12.05, 36.06 -0.07 M3.38 45.51 C17.38 30.26, 30.28 15.64, 44.41 -0.22 M1.54 45.78 C14.25 32.71, 25.06 20.7, 42.67 -0.47 M7.94 45.61 C17.69 38.61, 25.5 25.76, 48.25 -0.74 M7.46 45.6 C18.07 32.74, 28.14 21.68, 47.85 -0.55 M13.5 48.31 C28.6 28.86, 43.24 13.11, 54.36 -2.08 M12.56 47.54 C24.08 34.09, 33.2 22.8, 52.68 -0.73 M18.27 45.8 C33.01 29.1, 48.58 9.45, 58.3 0.3 M18.32 46.41 C32.34 29.52, 47.34 13.97, 57.37 -0.41 M24.74 48.45 C33.22 35.84, 38.32 26.95, 64.42 0.8 M23.62 45.76 C35.68 32.75, 46.29 18.66, 64.57 -0.6 M27.67 44.97 C40.01 30.08, 53.2 19.03, 69.42 1.86 M28.04 45.28 C42.51 28.63, 59.07 11.08, 69.26 0.49 M33.69 44.66 C47.46 32.43, 57.7 18.28, 74.44 -1.84 M33.69 47.24 C46.93 31.21, 61.65 15.17, 74.05 -1.13 M41.37 45.51 C47.69 35.83, 58.7 25.94, 80.6 -1.21 M38.61 45.84 C48.52 35.82, 58.26 26.01, 79.03 -0.84 M44.74 48.44 C55.03 33.27, 66.85 19.03, 85.07 -0.54 M44.56 45.69 C58.45 31.51, 71.42 14.78, 85.14 0.01 M48.74 46.24 C63.47 30.14, 81.54 11.85, 88.63 0.66 M49.75 45.88 C60.5 35.31, 70.28 23.33, 90.01 0.5 M56.04 45.97 C66.39 34.42, 74.81 23.15, 95.73 -0.12 M55.91 46.71 C69.15 30.39, 82.12 13.96, 95.27 -0.45 M59.9 45.46 C74.09 34.72, 87.11 19.78, 102.07 1.76 M60.48 47.31 C73.08 30.79, 86.63 16.28, 100.43 0.32 M65.54 48.16 C79.23 32.88, 90.29 16.2, 106.63 -1.7 M66.25 46.78 C74.53 37.46, 82.83 27.41, 106.2 -0.38 M71.76 47.44 C83.16 31.81, 97.07 12.42, 111.27 -0.92 M70.23 47.67 C83.81 31.25, 98.14 14.71, 110.36 0.31 M76.95 44.65 C89.79 31.64, 100.16 16.49, 114.79 1.62 M75.98 46.28 C85.3 37.6, 93.79 28.22, 115.09 0.98 M80.68 45.43 C87.75 34.96, 98.51 27.78, 115.14 6.66 M80.45 46.17 C94.17 32.37, 104.92 19.37, 115.51 7.34 M85.77 45.78 C94.53 39.44, 103.32 31.5, 113.41 13.72 M86.34 46.48 C94.75 36.54, 103.67 27.27, 114.87 13.08 M91.82 48.37 C97.43 38.82, 104.28 32.46, 113.53 20.41 M90.93 47.4 C98.1 38.07, 104.84 30.12, 114.61 19.35 M97.3 44.63 C103.64 40.9, 107.17 32.07, 113.58 26.82 M98.43 46.53 C101.94 41.17, 105.4 37.78, 114.92 26.4 M101.16 46.95 C105.09 43.12, 110.49 40.26, 113.48 33.65 M102.81 46.35 C106.38 42.13, 111.93 36.06, 114.62 31.97 M108.37 46.64 C111.5 43.41, 113.71 40.08, 114.33 39.11 M108.18 46.4 C109.79 44.62, 111.54 42.38, 114.24 39.07" stroke="#228be6" stroke-width="0.5" fill="none"></path><path d="M-0.82 -1.98 C27.46 -2.64, 59.29 1.03, 111.13 1.57 M-0.39 0.55 C24.65 0.06, 47.24 -0.54, 112.87 -0.54 M112.75 1.03 C114.21 10.06, 113.82 19.64, 111.62 43.34 M112.46 -0.69 C113.08 16.9, 112.28 34.25, 112.17 44.04 M113.52 43.29 C68.85 45.82, 23.46 44.59, -1.62 44.38 M112.28 45.63 C71.69 46.16, 29.85 46.24, -0.49 45.69 M-0.56 45.5 C0.14 35.03, 0.6 21.85, -0.83 0.07 M0.69 45.02 C-0.72 32.31, -0.27 19.54, -0.71 0.38" stroke="#000000" stroke-width="1" fill="none"></path></g><g transform="translate(487.2499084472656 555.9000091552734) rotate(0 48.5 12.5)"><text x="48.5" y="18" font-family="Virgil, Segoe UI Emoji" font-size="20px" fill="#000000" text-anchor="middle" style="white-space: pre;" direction="ltr">verify rad</text></g><g stroke-linecap="round" transform="translate(482.54998779296875 640.5999908447266) rotate(0 56.399993896484375 22.4000244140625)"><path d="M0 0 C0 0, 0 0, 0 0 M0 0 C0 0, 0 0, 0 0 M-0.72 6.27 C1.31 4.17, 1.98 3.07, 4.36 1.06 M-0.13 6.4 C1.97 4.26, 3.29 1.38, 4.82 0.4 M-1.23 12.16 C4.85 8.24, 7.24 3.27, 11.62 0.79 M-0.07 12.83 C3.88 8.13, 6.96 3.53, 10.52 0.17 M0.14 20.41 C4.68 12.8, 9.09 8.22, 15.97 1.64 M-0.26 19.24 C4.92 11.5, 12.26 5.5, 15.88 1.19 M1.79 24.72 C7.58 16.59, 17.77 5.45, 22.64 1.41 M0.76 23.66 C8.81 15.27, 17.13 5.04, 21.21 -0.75 M1.08 28.84 C4.77 25.28, 11.26 18.01, 27.78 -0.85 M0.2 31.43 C10.53 18.08, 20.69 7.23, 25.94 -0.58 M0.81 37.17 C11.83 20.54, 25.14 7.26, 32.35 -0.75 M-0.84 37.25 C11.39 22.04, 24.65 8.94, 31.86 -0.76 M1.68 43.2 C9.4 32.18, 21.39 17.59, 37.9 1.95 M0.68 43.13 C12.12 27.29, 24.9 13.13, 36.96 1.18 M3.16 45.71 C15.22 32.12, 31.53 12.99, 42.67 -0.57 M0.89 46.74 C13.74 33.49, 24.82 19.2, 42.72 0.05 M8.2 44.72 C17.25 31.72, 29.34 20.06, 49.14 2.08 M7 46.58 C24.2 28.15, 38.73 10.07, 48.03 -0.61 M10.93 48.21 C25.59 31.31, 40.61 15.42, 52.07 -1.39 M13.27 46.95 C23.68 36.01, 33.46 23.25, 52.44 -1.08 M16.54 47.22 C27.28 36.63, 35.2 25.39, 58.09 -1.7 M18.17 46.24 C32.01 29.84, 47.15 11.84, 58.09 0.87 M21.58 45.86 C31.93 32.42, 43.56 23.51, 65.77 -0.85 M23.02 47.19 C33.82 32.43, 46.75 19.31, 63.01 -0.52 M30.03 45.45 C40.49 30.18, 56.53 15.49, 69.14 2.08 M29.24 46.2 C37.36 36.59, 46.89 25.44, 68.97 -0.67 M32.85 46.75 C48.67 31.49, 62.24 13.05, 73.8 -0.88 M34.26 45.85 C42.53 35.78, 51.23 26.94, 74.81 -1.23 M40.06 46.12 C55.93 26.37, 70.37 8.72, 80.45 -0.39 M38.86 46.19 C54.7 29.35, 70.23 11.16, 80.31 0.35 M44.28 45.72 C57.26 31.86, 69.68 14.56, 84.96 -1.66 M44.98 47.22 C59.82 29, 73.47 12.25, 85.54 0.19 M48.16 46.42 C62.35 32.94, 74.17 17.43, 89.94 1.8 M48.43 47.04 C63.22 29.07, 78.47 14.19, 90.66 0.42 M55.18 46.28 C69.73 29.6, 86.2 11.18, 96.82 0.32 M54.01 46.47 C63.9 36.06, 73.76 23.8, 95.29 0.55 M58.58 44.98 C69.92 36.72, 80.52 25.57, 101.35 -1.71 M59.64 46.75 C74.63 29.2, 88.81 13.09, 100.38 -0.08 M66.65 46.71 C78.18 28.43, 96.44 11.74, 105.74 -1.69 M66.05 46.67 C73.78 37.3, 83.87 26.42, 105.51 -0.94 M72.41 48.42 C84.6 28.27, 101.15 9.54, 110.18 -0.58 M71.6 45.97 C82.51 32.22, 95.05 18.19, 110.74 0.12 M75.57 45.97 C85.41 33.66, 99.71 21.94, 114.91 3.52 M76.66 45.76 C86.57 34.77, 96.92 24, 114.02 2.55 M80.16 46.33 C87.47 37.99, 98.82 30.31, 114.48 6.56 M80.42 45.95 C92.95 33.11, 104.96 19.8, 115.61 8.47 M88.58 45.75 C97.7 34.18, 105.24 23.48, 113.69 14.19 M87.25 45.59 C95.11 38.07, 102.47 28.11, 115.42 13.55 M91.15 46 C96.42 42.07, 102.83 34.44, 115.28 20.98 M91.56 46.37 C100.93 35.95, 110.29 27.37, 114.9 20.5 M96.15 44.47 C104.65 38.64, 107.99 33.3, 115.3 26.89 M98.1 46.91 C101.28 40.04, 107.19 35.75, 115.76 26.63 M103.39 46.47 C106.5 41.62, 110.94 37.71, 114.7 31.45 M102.84 46.3 C106.33 42.23, 111.82 37.04, 115.68 32.36 M107.31 46.79 C109.56 43.73, 111.63 42.77, 114.65 38.63 M107.75 46.32 C109.47 44.5, 111.35 42.51, 114.98 39.03" stroke="#228be6" stroke-width="0.5" fill="none"></path><path d="M1.02 -0.98 C40.39 -1.46, 75.26 -2.11, 112.24 0.7 M-1 -0.42 C32.19 -0.33, 65.03 0.88, 113.49 0.22 M111.82 -1.41 C113.52 11.67, 111.5 23.51, 112 43.66 M112.24 -0.12 C113.7 14.76, 112.92 27.51, 112.56 44.19 M114.79 45.28 C79.29 46.62, 43.37 46.51, -1.01 44.07 M113.69 44.79 C86.91 44.52, 62.27 43.89, 0.12 45.39 M1.34 44.14 C0.06 32.79, 1.36 18.97, -1.45 -0.45 M0.69 44.63 C-0.85 33.43, -0.47 20.84, -0.76 0.69" stroke="#000000" stroke-width="1" fill="none"></path></g><g transform="translate(484.4499816894531 650.5000152587891) rotate(0 54.5 12.5)"><text x="54.5" y="18" font-family="Virgil, Segoe UI Emoji" font-size="20px" fill="#000000" text-anchor="middle" style="white-space: pre;" direction="ltr">parse head</text></g><g stroke-linecap="round" transform="translate(481.54998779296875 742.4000091552734) rotate(0 56.399993896484375 22.4000244140625)"><path d="M0 0 C0 0, 0 0, 0 0 M0 0 C0 0, 0 0, 0 0 M-0.29 6.23 C1.34 4.95, 3.25 1.31, 5.71 -0.04 M-0.39 6.04 C1.49 4.24, 3.33 2.2, 5.34 0.75 M-0.64 11.58 C4.4 9.28, 7.64 2.34, 10.42 -1.07 M-0.48 12.62 C2.19 9.08, 4.83 7.65, 11.02 -0.26 M-2.04 17.65 C2.9 12.84, 10.15 8.44, 16.68 -0.18 M-0.68 19.25 C3.4 14.3, 6.3 10.85, 15.54 0.43 M0.38 25.17 C5.48 16.45, 13.85 9.54, 20.64 -0.89 M-0.33 23.1 C7.61 15.16, 15.71 8.25, 22.22 -0.84 M1.01 30.28 C4.79 23.26, 13.8 14.23, 27.03 -0.2 M-0.39 30.6 C6.26 23.7, 11.3 16.32, 25.69 -0.57 M1.45 38.38 C9.83 25.3, 16.02 14.25, 30.01 -1.13 M0.08 36.95 C11.8 22.58, 23.19 9.11, 32.56 -0.15 M-1.46 43.13 C8.79 30.15, 18.71 22.4, 36.05 -0.14 M-0.75 41.67 C14.29 27.09, 29.79 9.73, 36.66 0.18 M0.52 45.24 C20.01 26.13, 32.88 8.36, 43.33 -0.34 M0.89 46.67 C17.94 28.74, 34.03 10.62, 41.77 0.41 M7.22 46.99 C16.15 36.07, 23.84 25.99, 48.7 1.33 M7.77 47.11 C18.97 33.01, 30.42 19.4, 46.67 0.88 M13.05 45.65 C26.26 32.8, 40.4 13.42, 55.13 0.93 M12.89 46.01 C26.37 29.83, 41.62 13.26, 53.9 -0.66 M18.3 47.2 C31.95 31.11, 44.93 18.21, 58.63 0.31 M17.98 46.29 C25.7 36.09, 34.27 27.08, 58.83 1.1 M24.81 46.93 C37.91 29.14, 56.12 10.07, 63.69 -2.07 M23.38 46.65 C38.24 29.01, 52.71 13.75, 64.38 0.03 M27.4 44.19 C40.61 34.74, 53.59 20.15, 70.23 1.7 M28.71 46.66 C44.89 28.3, 60.41 10.73, 68.14 0.76 M32.8 47.33 C42.94 34.36, 51.96 26.98, 73 -0.28 M34.03 46.83 C46.56 33.69, 57.55 19.43, 75.04 -0.31 M39.12 44.36 C48.01 34.75, 58.69 23.27, 80.59 1.17 M38.47 45.75 C55.85 27.59, 70.46 9.08, 78.49 -0.85 M42.74 47.9 C58.46 30.96, 68.08 15.89, 86.77 -0.91 M43.42 46.14 C52.6 34.93, 61.77 24.75, 85.07 0.42 M49.14 46.65 C64.21 29.92, 78.04 12.63, 89.53 -0.81 M48.5 46.73 C64.8 30.63, 78.1 14.87, 89.66 -0.1 M55.08 46.49 C66.53 35.62, 75.6 21.97, 94.43 -1.35 M54.03 46.54 C65.05 36.93, 73.3 24.82, 96.1 0.16 M60.84 45.53 C72.39 34.04, 82.34 24.38, 101.59 -1.02 M60.41 46.34 C70.2 33.73, 81.51 21.07, 100.33 0.03 M66.98 47.69 C82.19 27.3, 97.61 9.77, 105.12 0.77 M65.21 47.35 C80.06 30.49, 94.5 14.16, 107.1 -0.28 M71.31 45.5 C86.74 32.47, 98.89 15.1, 112.03 0.56 M71.22 46.46 C85.61 29.91, 101.73 12.26, 111.06 0.9 M74.31 44.9 C85.39 36.66, 95.74 26.03, 115.74 3.88 M76.21 46.24 C84.48 37.16, 92.63 26.73, 115.5 2.04 M80.06 48.09 C92.95 35.62, 104.06 22.22, 113.6 7.04 M81.01 46.07 C93.23 33.64, 104.38 20.16, 114.09 7.52 M85.69 46.3 C95.14 36.4, 104.18 29.11, 114.31 15.46 M87.18 46.24 C94.26 36.86, 101.93 28.13, 115.51 14.18 M90.3 46.62 C100.14 37.02, 106 30.4, 112.93 21.47 M91.22 47.01 C97.67 40.65, 102.18 33.84, 114.7 20.46 M96.42 44.83 C101.89 42.54, 107.24 33.41, 113.66 27.42 M98.16 46.74 C102.72 41.19, 106.72 34.32, 114.82 25.72 M102.92 48.12 C107.77 41.1, 108.6 39, 116.63 30.53 M101.77 46.96 C105.16 42.56, 107.98 39.86, 114.43 32.37 M107.34 47.28 C110.56 44.54, 112.3 41.78, 113.93 38.39 M108.1 46.41 C109.85 43.94, 111.46 41.45, 115.02 39.21" stroke="#228be6" stroke-width="0.5" fill="none"></path><path d="M1.23 1.33 C34.71 0.99, 72.23 1.67, 111.68 1.07 M0.4 -0.91 C39.23 -0.26, 78.39 1.06, 113.6 0.88 M114.23 0.92 C111.01 13.2, 112.09 30.59, 114.17 43.09 M113.27 0.44 C111.97 16.11, 113.04 32.51, 113.22 45.62 M113.45 45.31 C79.44 45.24, 47.03 46.44, -0.98 46.69 M113.32 44.31 C71.01 45.41, 27.91 46.57, 0.58 43.85 M-1.54 44.19 C1.93 27.8, 0.59 11.85, 1.51 0.26 M-0.27 45.58 C0.55 31.23, 0.35 18.9, 0.9 -0.74" stroke="#000000" stroke-width="1" fill="none"></path></g><g transform="translate(486.4499816894531 739.8000335693359) rotate(0 51.5 25)"><text x="51.5" y="18" font-family="Virgil, Segoe UI Emoji" font-size="20px" fill="#000000" text-anchor="middle" style="white-space: pre;" direction="ltr">parse</text><text x="51.5" y="43" font-family="Virgil, Segoe UI Emoji" font-size="20px" fill="#000000" text-anchor="middle" style="white-space: pre;" direction="ltr">attributes</text></g><g stroke-linecap="round" transform="translate(484.95001220703125 831.0000762939453) rotate(0 56.399993896484375 22.4000244140625)"><path d="M0 0 C0 0, 0 0, 0 0 M0 0 C0 0, 0 0, 0 0 M-0.09 7.03 C1.1 3.79, 3.46 1.48, 4.97 -0.21 M0.04 6.09 C0.54 5.23, 2.3 3.41, 4.79 0.32 M-0.68 11.21 C2.53 8.52, 6.59 3.66, 10.42 -0.89 M0.53 12.32 C2.81 9.09, 4.21 6.35, 10.51 0.08 M-0.73 17.82 C4.53 9.23, 13.68 5.79, 14.86 0.35 M-0.11 19.08 C4.71 10.77, 11.65 4.98, 15.67 0.8 M1.95 24.26 C6.19 18.96, 13 9.12, 19.84 -0.71 M0.98 23.24 C7.55 15.03, 15.98 5.83, 20.49 0.73 M1.38 30.69 C6.03 22.89, 16.93 11.28, 24.96 -0.09 M0.07 29.48 C8.26 21.97, 15.96 11.48, 25.69 0.06 M-1.91 36.86 C9.06 27.31, 13.64 18.17, 32.19 -1.26 M0.57 36.66 C8.06 26.5, 16.18 18.55, 31.76 0.07 M-0.18 42.38 C11.14 28.85, 21.73 15.79, 37.33 -1.13 M-0.78 43.52 C11.61 30.76, 20.88 16.87, 36.74 -0.38 M2.28 46.91 C16.63 26.26, 33.14 7.8, 42.14 -1.88 M1.19 47.12 C10.58 37.31, 20.05 28.06, 41.55 0.51 M5.94 46.08 C23.12 30.35, 35.8 15.06, 45.85 -0.78 M8.14 45.96 C22.53 28.77, 38.36 10.08, 47.88 -0.07 M11.68 46.22 C28.25 30.72, 42.67 12.45, 53.23 -1.99 M12.13 46.96 C24.76 32.37, 39.16 16.27, 53.47 -0.18 M16.69 47.51 C31.02 33.39, 40.47 20.26, 58.17 1.64 M18.82 45.79 C28.77 33.87, 40.26 20.22, 58.02 -0.67 M22.79 45.92 C37.43 29.85, 50.63 17.59, 63.75 0.72 M24.07 47.05 C39.48 29.35, 53.8 12.07, 64.49 0.17 M28.46 45.39 C45.21 28.46, 60.6 10.57, 69.75 -0.46 M29.25 45.65 C42.05 29.37, 56.19 13.67, 68.96 1.06 M32.42 48.04 C42.15 36.2, 52.14 23.7, 72.77 0.26 M33.11 47.28 C47.99 29.61, 62.62 13.19, 73.95 -0.88 M37.7 46.35 C52.82 29.68, 67.19 14.62, 77.79 1.06 M39.09 45.77 C49.98 33.07, 62.69 19.01, 80.31 0.25 M43.18 45.34 C56.89 34.62, 67.43 21.56, 86.17 0.37 M45.19 47.49 C55.71 32.77, 68.56 18.95, 84.52 0.6 M51 47.52 C60.82 31.67, 73.76 20.58, 91.3 -0.96 M48.67 47.55 C59.66 34.09, 72.05 22.55, 90.57 0.91 M53.43 47.29 C72.03 28.95, 84.87 10.25, 94.59 0.52 M55.13 46.38 C66.78 32.42, 79.35 20.67, 95.27 -0.04 M61.69 47.46 C74.67 29.99, 90.22 11.12, 101.07 1.06 M60.67 47.49 C74.16 30.14, 88.13 14.7, 100.1 0.96 M67.35 46.09 C75.36 34.04, 86.6 20.58, 107.44 -2.12 M65.58 46.53 C75.64 33.75, 86.98 23.95, 106.59 -1.07 M71.91 48.75 C78.11 34.64, 91.5 24.36, 109.65 -0.61 M71.17 46.77 C81.01 33.16, 93.62 19.23, 112.12 -0.82 M76.87 46.65 C85.73 37.17, 94.11 24.21, 112.97 3.6 M76.09 45.44 C87.92 31.29, 100.21 17.11, 115.3 0.89 M81.25 44.89 C93.25 34.83, 103.3 20.14, 114.19 9.34 M81.23 47.2 C90.68 35.46, 102.11 23.94, 114.47 8.57 M87.7 44.59 C94.24 39.78, 100.55 33.96, 113.61 15.86 M86.02 46.49 C95.55 36.35, 104.41 25.09, 114.95 14.89 M92.05 47.13 C99.62 37.4, 106.99 30.04, 114.74 22.12 M91.3 46.97 C99.99 37.5, 108.04 27.55, 115.03 20.18 M97.36 48.27 C103.77 40.69, 105.25 36.49, 115.64 27.18 M97.63 45.93 C102.74 41.46, 107.72 35.4, 114.57 26.02 M103.43 46.44 C105.87 41.15, 110.46 37.34, 116.41 32.39 M102.19 47.62 C105.84 43.28, 107.48 40.92, 114.88 31.74 M108.63 45.53 C110.94 44.9, 111.45 41.75, 114.84 38.56 M108.58 46.12 C109.4 44.25, 111.75 42.45, 115.02 38.55" stroke="#228be6" stroke-width="0.5" fill="none"></path><path d="M-1.41 0.84 C23.37 1.31, 46.15 2.16, 111.63 1.17 M0.03 0.61 C40.72 1.52, 80.78 1.85, 111.96 0.47 M112.94 0.65 C112.49 11.93, 113.85 26.09, 113.22 45.51 M113.35 0.53 C113.28 11.53, 111.99 22.44, 113.22 43.96 M113.25 45.18 C73.46 43.74, 33.13 42.49, -0.35 43.21 M112.82 44.4 C79.33 45.29, 44.37 45.52, -0.33 45.18 M-0.06 43.59 C0.09 26.02, 0.69 10.46, 0.52 0.74 M0.44 44.3 C-0.02 29.8, -0.6 14.38, -0.55 0.4" stroke="#000000" stroke-width="1" fill="none"></path></g><g transform="translate(501.3500061035156 828.4001007080078) rotate(0 40 25)"><text x="40" y="18" font-family="Virgil, Segoe UI Emoji" font-size="20px" fill="#000000" text-anchor="middle" style="white-space: pre;" direction="ltr">write to</text><text x="40" y="43" font-family="Virgil, Segoe UI Emoji" font-size="20px" fill="#000000" text-anchor="middle" style="white-space: pre;" direction="ltr">CSV</text></g><g stroke-linecap="round" transform="translate(445.7499542236328 382.89994049072266) rotate(0 84.79998779296875 22.4000244140625)"><path d="M0 0 C0 0, 0 0, 0 0 M0 0 C0 0, 0 0, 0 0 M-0.84 6.92 C0.75 4.18, 2.61 2.7, 4.87 0.66 M-0.44 6.24 C1.04 5.01, 2.69 3.34, 4.84 0.38 M0.62 11.48 C2.85 8.3, 5.97 7.89, 10.41 0.48 M0.63 11.47 C3.79 8.79, 6.89 4.17, 11.35 -0.02 M0 19.84 C4.92 11.01, 12.03 5.5, 13.7 0.1 M-0.89 18.28 C2.87 15.03, 5.67 11.13, 16.19 0.31 M2.11 26.01 C8.27 17.39, 15.96 7.19, 23.1 1.36 M-0.14 23.94 C6.74 16.39, 14.24 8.14, 21.27 0.42 M0.73 31.49 C5.84 20.85, 12.8 13.03, 25.82 0.67 M-0.82 29.82 C11.19 17.99, 21 6.28, 25.93 -0.53 M0.53 35.62 C11.49 25.02, 19.23 14.16, 30.14 -1.03 M0.62 36.04 C7.25 27.91, 14.61 19.47, 32.18 -0.91 M0.04 41.94 C12.19 26.53, 25.67 14.52, 34.88 2.07 M0.22 41.93 C11.13 29.72, 23.98 15.93, 37.78 0.82 M2.48 48.31 C17.33 29.49, 29.57 15.37, 43.47 -1.18 M2.6 47.48 C18.03 28.75, 32.52 11.44, 42.51 0.5 M6.51 44.89 C18.87 33.73, 27.01 24.92, 49.5 1.31 M8.03 45.48 C22.88 29.54, 37.93 10.69, 47.07 -0.32 M11.86 46.89 C26.22 30.43, 38.71 16.31, 54.82 -0.98 M13.33 47.47 C25.71 30.87, 39.42 15.55, 53.38 0.03 M17.31 47.61 C33.2 30.17, 44.95 13.5, 59.07 -0.92 M18.1 47.09 C33.75 27.92, 49.49 10.22, 57.47 0.76 M22.91 46.5 C32.09 35.86, 38.54 28.22, 65.74 0.38 M22.26 47.24 C33.6 34.56, 41.32 25.66, 63.77 -1.02 M28.08 47.3 C39.47 31.49, 49.94 20.69, 67.76 1.81 M28.44 46.5 C37.82 36.33, 46.88 26.03, 68.02 -0.84 M33.17 46.21 C47.38 27.09, 63.51 8.43, 73.54 0.43 M32.75 46.55 C40.81 37.88, 50.06 28.07, 73.52 -0.5 M37.51 46.12 C54.33 28.4, 68.06 14.39, 80.53 -0.34 M39.2 46.56 C52.03 31.52, 66.21 16.54, 80.1 -0.63 M44.97 44.78 C60.59 26.82, 77.97 7.42, 85.31 -0.56 M44.49 46.61 C60.73 28.74, 75.81 10.57, 84.33 -0.32 M49.41 45.72 C65.43 28.59, 81.08 10.17, 89.11 0.48 M49.74 46.8 C62.11 34.41, 72.63 19.47, 90.47 0.29 M55.44 46.71 C68.97 30.46, 85.81 13.98, 95.93 -1.63 M54.56 46.97 C67.44 31.95, 79.07 18.31, 94.75 0.45 M61.34 46.18 C74.54 33.97, 84.52 17.5, 102.03 -0.14 M60.23 47.33 C68.85 36.99, 79.81 24.75, 100.25 0.18 M66.45 48.19 C76.46 31.74, 88.02 21.54, 106.06 0.93 M66.37 46.6 C76.05 35.6, 86.02 21.96, 107.21 -1.33 M70.7 48.58 C82.09 36.98, 89.87 25.5, 110.58 -0.91 M70.76 46.45 C79.04 35.96, 88.14 26.85, 111.9 -0.29 M74.69 47.16 C88.21 28.95, 105.11 16.65, 115.49 0.27 M76.71 46.86 C89.16 32.54, 101.95 16.86, 116.31 0.83 M79.28 45.94 C94.77 33.54, 107.09 15.01, 122.84 -0.79 M80.91 46.57 C90.64 36.26, 101.02 24.74, 122.26 0.94 M85.61 45.26 C94.42 37.31, 105.49 26.99, 127.74 2.01 M86.73 46.48 C102.55 27.04, 117.92 10.17, 126.51 1.04 M90.69 46.03 C102.48 34.39, 109.5 23.74, 133.68 -1.05 M92.13 46.02 C100.68 35.2, 110.9 24.47, 133.51 0.31 M99.44 45.86 C113.14 28.63, 127.37 10.2, 136.17 -1.23 M96.93 46.6 C111.35 29.85, 123.89 14.38, 137.15 0.57 M104.3 45.32 C113.65 31.75, 125.78 18.79, 142.74 0.78 M102.72 46 C115.22 31.94, 127.45 18.57, 142.2 -0.35 M109.21 48.05 C124.49 29.54, 137.64 13.65, 148.55 1.1 M108.17 45.75 C117.35 36.65, 126.74 25.2, 148.09 -0.16 M113.27 47 C126.96 28.67, 143.02 12.13, 152.44 0.85 M112.86 47.6 C122.19 35.01, 132.07 24.99, 154.25 -0.79 M118.72 44.62 C130.77 30.3, 143.82 18.3, 160.46 0.3 M118.66 46.84 C130.45 32.66, 141.49 18.99, 158.02 0.13 M122.55 46.99 C138.01 32.96, 149.66 16.5, 165.99 -0.92 M123.57 46.8 C132.67 36.15, 139.63 28.21, 163.92 0.59 M128.54 48.09 C139.88 34.58, 149.45 24.83, 169.24 -1.62 M129 46.18 C136.87 37.45, 145.57 27.77, 169.54 0.65 M134.84 47.92 C146.35 33.64, 160.83 16.69, 168.12 7.12 M133.73 47.49 C145.3 35.26, 155.02 23.3, 169.6 5.84 M142.03 44.7 C148.96 32.89, 158.33 25.15, 169.52 14.12 M139.12 46.46 C149.48 34.56, 159.5 23.19, 169.57 11.53 M144.67 45.12 C153.6 36.19, 163.31 23.02, 168.96 19.05 M145.08 46.43 C153.81 37.53, 162.47 27.62, 168.6 19.12 M151.35 44.42 C157.82 38.78, 162.92 34.15, 170.7 24.89 M151.33 45.77 C157.89 37.39, 165.35 29.46, 169.9 24.69 M156.3 44.68 C159.47 44.8, 162.95 42.06, 168.6 30.38 M155.25 46.28 C161.12 40.18, 164.44 36.21, 168.85 30.67 M160.07 46.65 C162.72 45.27, 164.24 41.27, 170.9 36.68 M161.28 46.43 C163.73 43.78, 164.99 41.62, 170.39 36.75 M166.16 46.22 C167.96 44.85, 168.76 43.32, 169.35 43.2 M166.38 46.52 C167.37 44.84, 169.01 43.76, 169.52 42.65" stroke="#228be6" stroke-width="0.5" fill="none"></path><path d="M-1.21 1.42 C43.74 -0.67, 89.99 0.98, 167.83 -1.55 M0.37 0.69 C64.58 -2.45, 129.88 -1.06, 169.39 -0.64 M168.7 0.12 C167.64 12.96, 170.93 24.81, 168.48 43.68 M169.04 -0.83 C169.3 13.15, 168.77 24.09, 168.83 44.95 M169.93 46.45 C128.09 44.06, 85.8 43.78, 1.44 44.54 M168.98 44.64 C115.67 43.47, 61.36 43.17, -0.61 45.03 M0.21 42.97 C2 36.23, 1.86 22.42, -0.6 -0.28 M0.29 45.02 C-0.31 33.49, -1.26 23.05, -0.73 -0.19" stroke="#000000" stroke-width="1" fill="none"></path></g><g transform="translate(468.84996032714844 378.6999816894531) rotate(0 64.5 25)"><text x="64.5" y="18" font-family="Virgil, Segoe UI Emoji" font-size="20px" fill="#000000" text-anchor="middle" style="white-space: pre;" direction="ltr">receive burst</text><text x="64.5" y="43" font-family="Virgil, Segoe UI Emoji" font-size="20px" fill="#000000" text-anchor="middle" style="white-space: pre;" direction="ltr">on port</text></g><g stroke-linecap="round" transform="translate(484.09991455078125 921.6499938964844) rotate(0 56.399993896484375 22.4000244140625)"><path d="M0 0 C0 0, 0 0, 0 0 M0 0 C0 0, 0 0, 0 0 M0.01 6.98 C1.46 5.17, 1.93 3.9, 5.21 -0.2 M-0.29 6.78 C0.52 5.28, 2.16 3.59, 5.25 0.66 M-0.89 13.55 C4.19 7.87, 5.06 7.06, 9.34 -1.55 M0.12 11.45 C1.85 9.88, 3.9 6.39, 10.14 0.62 M-1.79 19 C5.86 13.38, 10.72 5.28, 15.74 -0.1 M-0.4 18.01 C4.96 11.85, 11.43 5.94, 14.98 0.49 M-1.1 22.34 C5.4 17.72, 8.76 11.86, 20.85 -1.76 M1.18 24.84 C6.11 16.87, 13.36 8.87, 20.71 -0.87 M0.26 29.18 C9.86 18.29, 18.83 7.41, 28.08 2.14 M0.85 29.61 C7.3 22.9, 12.22 15.01, 25.95 0.92 M-0.68 38.22 C8.73 28.19, 14.19 17.68, 31.22 0.66 M-0.44 36.44 C9.66 24.81, 21.76 12.49, 31.71 -0.54 M1.04 42.7 C12.32 32.85, 20.92 18.1, 35.03 1.76 M-0.39 42.1 C7.96 32.78, 16.29 23.74, 37.38 0.86 M0.49 47.23 C12.21 34.84, 26.08 20.86, 40.7 1.03 M2.07 47.1 C15.64 32.02, 28.66 17.76, 42.42 -0.21 M8.97 44.33 C20.83 31.92, 33.23 18.17, 46.78 0.59 M7.19 45.52 C20.68 31.38, 34.8 14.39, 48.5 0.64 M11.09 45.81 C23.23 30.63, 36.38 17.7, 54.58 -2.17 M12.54 46.67 C24.41 33.28, 35.26 21.06, 53.15 -0.48 M18.01 46.47 C27.7 34.36, 40.73 21.74, 57.2 0.28 M18.64 46.08 C30.13 31.2, 43.36 16.43, 57.94 -0.56 M21.13 46.76 C37.56 31.68, 50.12 17.77, 64.86 -1.66 M23.74 46.44 C34.59 32.67, 45.76 20.63, 64.09 0.37 M29.52 45.53 C40.16 29.44, 56.5 14.38, 69.92 0.22 M29.56 45.61 C38.55 36.04, 47.5 24.38, 68.69 0.31 M34.85 46.88 C47.69 31.37, 63.53 13.85, 76.27 0.61 M33.37 45.79 C44.14 35.34, 53.62 24.92, 74.3 -0.57 M40.84 44.94 C52.4 31.73, 62.19 19.61, 80.28 -0.39 M39.71 45.52 C53.06 29.4, 65.88 14.86, 79.16 -0.86 M44.2 46.72 C56.51 31.73, 67.69 19.56, 84.25 -0.54 M44.51 46.91 C55.8 33.34, 66.14 21.07, 84.77 0.18 M47.39 45.65 C60.87 30.53, 76.55 14.8, 89.32 -0.59 M50.1 46.33 C60.77 33.61, 70.25 22.2, 90.14 -0.3 M54.86 44.63 C66.05 34.16, 77.54 18.03, 96.95 0.5 M54.65 45.88 C69.91 28.64, 85.12 12, 95.36 -0.59 M59.27 45.14 C74.77 29.2, 92.98 10.51, 101.82 0.39 M60.59 47.66 C70.48 34.78, 80.49 22.36, 99.81 0.61 M64.24 46.74 C77.01 31.86, 91.16 20.4, 105.27 -1.86 M64.65 45.64 C79.2 31.3, 91.52 15.21, 105.8 0.31 M71.32 47.94 C85.78 29.35, 102.49 8.75, 112.26 1.07 M70.96 47.75 C84.13 32.52, 97.08 16.75, 110.74 0.34 M75.43 44.96 C87.58 32.3, 100.08 20.27, 114.83 3.8 M75.76 46.97 C84.81 36.25, 93.41 26.72, 114.79 1.67 M79.77 48.6 C93.05 35.61, 103.64 22.56, 115.64 8.07 M80.53 47.44 C91.13 35.36, 100.62 26.44, 115.68 8.54 M87.28 46.98 C96.19 33.58, 106.38 23.36, 113.38 14.99 M86.65 45.53 C95.9 37.17, 104 27.3, 114.28 13.94 M91.56 46.44 C96.39 41.43, 102.94 32.98, 115.82 20.96 M92.54 45.95 C97.91 39.61, 104.92 31.63, 114.91 19.87 M96.34 46.27 C104.01 37.98, 110 32.75, 116.5 26.64 M98.34 46.83 C101.75 40.67, 108.48 33.18, 114.24 25.55 M102.37 47.53 C106.17 40.06, 110.68 36.15, 115.69 31.86 M103.05 45.88 C106.4 40.94, 110.46 37.81, 115.44 32.6 M107.51 47.19 C109.7 44.3, 110.31 42.48, 114 37.89 M107.71 46.77 C110.59 43.16, 112.95 40.64, 115.01 38.32" stroke="#228be6" stroke-width="0.5" fill="none"></path><path d="M-1.92 -0.61 C40.74 -1.32, 78.77 2.25, 113.94 1.6 M0.75 -0.29 C27.05 -0.18, 56.57 0.47, 112.14 0.85 M114.62 -0.93 C112.35 16.81, 112.68 33.51, 111.46 46.04 M113.67 0.38 C113.72 11.85, 112.96 26.33, 113.52 45.35 M111.03 45.24 C85.06 47.19, 54.44 46.05, 0.93 44.3 M112.76 45.16 C79.61 44.45, 45.5 44.26, -0.99 45.57 M1.51 44.67 C0.67 34.48, 1.86 25.71, -1.58 -1.34 M0.11 45.43 C0.47 30.43, -0.4 17.51, 0.12 0.8" stroke="#000000" stroke-width="1" fill="none"></path></g><g transform="translate(507.4999084472656 919.0500183105469) rotate(0 33 25)"><text x="33" y="18" font-family="Virgil, Segoe UI Emoji" font-size="20px" fill="#000000" text-anchor="middle" style="white-space: pre;" direction="ltr">free </text><text x="33" y="43" font-family="Virgil, Segoe UI Emoji" font-size="20px" fill="#000000" text-anchor="middle" style="white-space: pre;" direction="ltr">packet</text></g><g stroke-linecap="round"><g transform="translate(600.4999694824219 948.2500305175781) rotate(0 57.75108606879604 -0.3474647131057509)"><path d="M-0.31 -0.18 C18.93 -0.17, 96.2 0.59, 115.81 0.79 M1.73 -1.32 C20.75 -1.74, 95.42 -1.21, 114.66 -1.16" stroke="#000000" stroke-width="1" fill="none"></path></g><g transform="translate(600.4999694824219 948.2500305175781) rotate(0 57.75108606879604 -0.3474647131057509)"><path d="M86.13 8.33 C96.24 7.63, 105.95 3.09, 113.88 -2.48 M85.43 9.02 C91.63 6.17, 98.8 5.73, 114.6 -0.2" stroke="#000000" stroke-width="1" fill="none"></path></g><g transform="translate(600.4999694824219 948.2500305175781) rotate(0 57.75108606879604 -0.3474647131057509)"><path d="M86.22 -12.19 C96.42 -6.12, 106.1 -3.89, 113.88 -2.48 M85.52 -11.5 C91.67 -9.94, 98.81 -5.96, 114.6 -0.2" stroke="#000000" stroke-width="1" fill="none"></path></g></g><g stroke-linecap="round"><g transform="translate(718.7000122070312 949.6499938964844) rotate(0 0.16356097517530088 -275.34751940218734)"><path d="M-0.38 0.33 C-0.49 -91.17, -0.74 -457.44, -0.95 -549.21 M1.62 -0.54 C1.48 -92.38, -0.65 -459.59, -1.29 -551.03" stroke="#000000" stroke-width="1" fill="none"></path></g><g transform="translate(718.7000122070312 949.6499938964844) rotate(0 0.16356097517530088 -275.34751940218734)"><path d="M9.7 -520.97 C7.27 -529.91, 2.69 -539.68, -2.99 -551.39 M8.26 -523.64 C6.96 -529.11, 4.01 -536.37, -0.97 -550.59" stroke="#000000" stroke-width="1" fill="none"></path></g><g transform="translate(718.7000122070312 949.6499938964844) rotate(0 0.16356097517530088 -275.34751940218734)"><path d="M-10.82 -520.84 C-7.62 -529.76, -6.58 -539.56, -2.99 -551.39 M-12.26 -523.51 C-8.3 -529.03, -5.99 -536.32, -0.97 -550.59" stroke="#000000" stroke-width="1" fill="none"></path></g></g><g stroke-linecap="round"><g transform="translate(715.4499816894531 399.30006408691406) rotate(0 -49.15746385796922 1.1232691768370842)"><path d="M1.16 0.57 C-15.24 0.7, -81.9 1.13, -98.76 1.13 M0.31 -0.18 C-16.17 0.09, -83.17 2.17, -99.48 2.42" stroke="#000000" stroke-width="1" fill="none"></path></g><g transform="translate(715.4499816894531 399.30006408691406) rotate(0 -49.15746385796922 1.1232691768370842)"><path d="M-70.6 -7.79 C-79.78 -6.64, -88.19 -2.74, -100.35 0.43 M-71.33 -7.52 C-80.23 -4.43, -88.37 -1.61, -99.91 1.48" stroke="#000000" stroke-width="1" fill="none"></path></g><g transform="translate(715.4499816894531 399.30006408691406) rotate(0 -49.15746385796922 1.1232691768370842)"><path d="M-70.1 12.73 C-79.47 8.39, -88.01 6.78, -100.35 0.43 M-70.83 12.99 C-79.7 9.82, -88 6.38, -99.91 1.48" stroke="#000000" stroke-width="1" fill="none"></path></g></g><g transform="translate(663.4499816894531 647.550048828125) rotate(0 19 12.5)"><text x="0" y="18" font-family="Virgil, Segoe UI Emoji" font-size="20px" fill="#000000" text-anchor="start" style="white-space: pre;" direction="ltr">loop</text></g><g stroke-linecap="round"><g transform="translate(593.8500061035156 258.9500427246094) rotate(0 -0.645948179438733 35.140795304253686)"><path d="M0.29 -0.3 C0.02 11.42, -1.24 59.01, -1.59 70.58" stroke="#000000" stroke-width="1.5" fill="none" stroke-dasharray="8 9"></path></g></g></svg>